<svg width="382" height="70" viewBox="0 0 382 70" fill="none" xmlns="http://www.w3.org/2000/svg">
<mask id="path-1-outside-1_440_198" maskUnits="userSpaceOnUse" x="0.780029" y="0.549805" width="381" height="69" fill="black">
<rect fill="white" x="0.780029" y="0.549805" width="381" height="69"/>
<path d="M28.1 24.2998L24.81 34.9398H35.8L32.51 24.2998C32.3234 23.8798 32.1134 23.5765 31.88 23.3898C31.6934 23.2031 31.46 23.1098 31.18 23.1098H29.43C29.15 23.1098 28.8934 23.2031 28.66 23.3898C28.4734 23.5765 28.2867 23.8798 28.1 24.2998ZM24.11 57.4798C24.11 58.3665 23.9 59.0198 23.48 59.4398C23.1067 59.8131 22.4767 59.9998 21.59 59.9998H11.3C10.4134 59.9998 9.76003 59.8131 9.34003 59.4398C8.9667 59.0198 8.78003 58.3665 8.78003 57.4798V38.9998C8.78003 37.5998 8.99003 35.9898 9.41003 34.1698C9.8767 32.3498 10.5767 30.2265 11.51 27.7998L17.6 11.9098C17.88 11.1165 18.3 10.5331 18.86 10.1598C19.4667 9.78647 20.2367 9.5998 21.17 9.5998H40C40.8867 9.5998 41.61 9.78647 42.17 10.1598C42.7767 10.5331 43.22 11.1165 43.5 11.9098L49.59 27.7998C50.5234 30.2265 51.2 32.3498 51.62 34.1698C52.0867 35.9898 52.32 37.5998 52.32 38.9998V57.4798C52.32 58.3665 52.11 59.0198 51.69 59.4398C51.3167 59.8131 50.6867 59.9998 49.8 59.9998H39.23C38.2967 59.9998 37.5967 59.8131 37.13 59.4398C36.71 59.0198 36.5 58.3665 36.5 57.4798V47.6798H24.11V57.4798Z"/>
<path d="M90.3628 59.9998H63.4828C62.5962 59.9998 61.9428 59.8131 61.5228 59.4398C61.1495 59.0198 60.9628 58.3665 60.9628 57.4798V12.1198C60.9628 11.2331 61.1495 10.6031 61.5228 10.2298C61.9428 9.8098 62.5962 9.5998 63.4828 9.5998H85.8128C90.3862 9.5998 93.7695 10.4865 95.9628 12.2598C98.1562 13.9865 99.2528 16.6698 99.2528 20.3098V23.6698C99.2528 25.6298 98.9028 27.2398 98.2028 28.4998C97.5495 29.7131 96.5228 30.6231 95.1228 31.2298C98.1095 31.5098 100.326 32.5365 101.773 34.3098C103.22 36.0831 103.943 38.6731 103.943 42.0798V48.5198C103.943 52.4398 102.823 55.3331 100.583 57.1998C98.3895 59.0665 94.9828 59.9998 90.3628 59.9998ZM76.7128 21.4998V29.0598H82.6628C83.5495 29.0598 84.2028 28.8265 84.6228 28.3598C85.0895 27.8931 85.3228 27.1931 85.3228 26.2598V24.2998C85.3228 23.3665 85.0895 22.6665 84.6228 22.1998C84.2028 21.7331 83.5495 21.4998 82.6628 21.4998H76.7128ZM76.7128 39.8398V48.0998H85.8128C86.6995 48.0998 87.3528 47.8665 87.7728 47.3998C88.2395 46.9331 88.4728 46.2331 88.4728 45.2998V42.5698C88.4728 41.6365 88.2395 40.9598 87.7728 40.5398C87.3528 40.0731 86.6995 39.8398 85.8128 39.8398H76.7128Z"/>
<path d="M154.385 46.7698C154.385 48.9165 154.059 50.8765 153.406 52.6498C152.799 54.3765 151.679 55.8698 150.046 57.1298C148.459 58.3431 146.242 59.2998 143.395 59.9998C140.595 60.6998 137.026 61.0498 132.686 61.0498C128.346 61.0498 124.752 60.6998 121.905 59.9998C119.059 59.2998 116.819 58.3431 115.186 57.1298C113.599 55.8698 112.479 54.3765 111.826 52.6498C111.219 50.8765 110.915 48.9165 110.915 46.7698V22.8998C110.915 20.7531 111.219 18.8165 111.826 17.0898C112.479 15.3165 113.599 13.7998 115.186 12.5398C116.819 11.2798 119.059 10.2998 121.905 9.5998C124.752 8.8998 128.346 8.5498 132.686 8.5498C137.026 8.5498 140.595 8.8998 143.395 9.5998C146.242 10.2998 148.459 11.2798 150.046 12.5398C151.679 13.7998 152.799 15.3165 153.406 17.0898C154.059 18.8165 154.385 20.7531 154.385 22.8998V46.7698ZM126.805 44.2498C126.805 45.1831 127.155 45.9765 127.855 46.6298C128.555 47.2365 130.166 47.5398 132.686 47.5398C135.206 47.5398 136.816 47.2365 137.516 46.6298C138.216 45.9765 138.566 45.1831 138.566 44.2498V25.4198C138.566 24.5331 138.216 23.7865 137.516 23.1798C136.816 22.5265 135.206 22.1998 132.686 22.1998C130.166 22.1998 128.555 22.5265 127.855 23.1798C127.155 23.7865 126.805 24.5331 126.805 25.4198V44.2498Z"/>
<path d="M206.207 46.7698C206.207 48.9165 205.88 50.8765 205.227 52.6498C204.62 54.3765 203.5 55.8698 201.867 57.1298C200.28 58.3431 198.087 59.2998 195.287 59.9998C192.487 60.6998 188.917 61.0498 184.577 61.0498C180.237 61.0498 176.667 60.6998 173.867 59.9998C171.067 59.2998 168.85 58.3431 167.217 57.1298C165.63 55.8698 164.51 54.3765 163.857 52.6498C163.25 50.8765 162.947 48.9165 162.947 46.7698V12.1198C162.947 11.2331 163.133 10.6031 163.507 10.2298C163.927 9.8098 164.58 9.5998 165.467 9.5998H176.457C177.344 9.5998 177.973 9.8098 178.347 10.2298C178.767 10.6031 178.977 11.2331 178.977 12.1198V44.0398C178.977 44.9731 179.327 45.7665 180.027 46.4198C180.727 47.0265 182.29 47.3298 184.717 47.3298C187.19 47.3298 188.777 47.0265 189.477 46.4198C190.177 45.7665 190.527 44.9731 190.527 44.0398V12.1198C190.527 11.2331 190.713 10.6031 191.087 10.2298C191.507 9.8098 192.16 9.5998 193.047 9.5998H203.687C204.573 9.5998 205.203 9.8098 205.577 10.2298C205.997 10.6031 206.207 11.2331 206.207 12.1198V46.7698Z"/>
<path d="M239.323 59.9998H227.983C227.097 59.9998 226.443 59.8131 226.023 59.4398C225.65 59.0198 225.463 58.3665 225.463 57.4798V23.1098H215.173C214.287 23.1098 213.633 22.9231 213.213 22.5498C212.84 22.1298 212.653 21.4765 212.653 20.5898V12.1198C212.653 11.2331 212.84 10.6031 213.213 10.2298C213.633 9.8098 214.287 9.5998 215.173 9.5998H252.133C253.02 9.5998 253.65 9.8098 254.023 10.2298C254.443 10.6031 254.653 11.2331 254.653 12.1198V20.5898C254.653 21.4765 254.443 22.1298 254.023 22.5498C253.65 22.9231 253.02 23.1098 252.133 23.1098H241.843V57.4798C241.843 58.3665 241.633 59.0198 241.213 59.4398C240.84 59.8131 240.21 59.9998 239.323 59.9998Z"/>
<path d="M289.45 59.9998H279.02C278.133 59.9998 277.48 59.8131 277.06 59.4398C276.687 59.0198 276.5 58.3665 276.5 57.4798V12.1198C276.5 11.2331 276.687 10.6031 277.06 10.2298C277.48 9.8098 278.133 9.5998 279.02 9.5998H290.29C291.037 9.5998 291.643 9.76314 292.11 10.0898C292.623 10.4165 293.09 10.9531 293.51 11.6998L299.81 23.1098C300.043 23.5298 300.23 23.8331 300.37 24.0198C300.557 24.2065 300.79 24.2998 301.07 24.2998H301.7C301.98 24.2998 302.19 24.2065 302.33 24.0198C302.517 23.8331 302.727 23.5298 302.96 23.1098L309.19 11.6998C309.61 10.9531 310.053 10.4165 310.52 10.0898C311.033 9.76314 311.663 9.5998 312.41 9.5998H323.75C324.637 9.5998 325.267 9.8098 325.64 10.2298C326.06 10.6031 326.27 11.2331 326.27 12.1198V57.4798C326.27 58.3665 326.06 59.0198 325.64 59.4398C325.267 59.8131 324.637 59.9998 323.75 59.9998H312.97C312.083 59.9998 311.43 59.8131 311.01 59.4398C310.637 59.0198 310.45 58.3665 310.45 57.4798V32.8398L306.32 40.4698C305.9 41.2631 305.387 41.8465 304.78 42.2198C304.22 42.5465 303.497 42.7098 302.61 42.7098H299.81C298.923 42.7098 298.177 42.5465 297.57 42.2198C297.01 41.8465 296.52 41.2631 296.1 40.4698L291.97 32.8398V57.4798C291.97 58.3665 291.76 59.0198 291.34 59.4398C290.967 59.8131 290.337 59.9998 289.45 59.9998Z"/>
<path d="M370.904 59.9998H338.424C337.538 59.9998 336.884 59.8131 336.464 59.4398C336.091 59.0198 335.904 58.3665 335.904 57.4798V12.1198C335.904 11.2331 336.091 10.6031 336.464 10.2298C336.884 9.8098 337.538 9.5998 338.424 9.5998H370.904C371.791 9.5998 372.421 9.8098 372.794 10.2298C373.214 10.6031 373.424 11.2331 373.424 12.1198V20.3098C373.424 21.1965 373.214 21.8498 372.794 22.2698C372.421 22.6431 371.791 22.8298 370.904 22.8298H351.584V28.2198H365.234C366.121 28.2198 366.751 28.4298 367.124 28.8498C367.544 29.2231 367.754 29.8531 367.754 30.7398V38.2298C367.754 39.1165 367.544 39.7698 367.124 40.1898C366.751 40.5631 366.121 40.7498 365.234 40.7498H351.584V46.7698H370.904C371.791 46.7698 372.421 46.9798 372.794 47.3998C373.214 47.7731 373.424 48.4031 373.424 49.2898V57.4798C373.424 58.3665 373.214 59.0198 372.794 59.4398C372.421 59.8131 371.791 59.9998 370.904 59.9998Z"/>
</mask>
<path d="M28.1 24.2998L24.81 34.9398H35.8L32.51 24.2998C32.3234 23.8798 32.1134 23.5765 31.88 23.3898C31.6934 23.2031 31.46 23.1098 31.18 23.1098H29.43C29.15 23.1098 28.8934 23.2031 28.66 23.3898C28.4734 23.5765 28.2867 23.8798 28.1 24.2998ZM24.11 57.4798C24.11 58.3665 23.9 59.0198 23.48 59.4398C23.1067 59.8131 22.4767 59.9998 21.59 59.9998H11.3C10.4134 59.9998 9.76003 59.8131 9.34003 59.4398C8.9667 59.0198 8.78003 58.3665 8.78003 57.4798V38.9998C8.78003 37.5998 8.99003 35.9898 9.41003 34.1698C9.8767 32.3498 10.5767 30.2265 11.51 27.7998L17.6 11.9098C17.88 11.1165 18.3 10.5331 18.86 10.1598C19.4667 9.78647 20.2367 9.5998 21.17 9.5998H40C40.8867 9.5998 41.61 9.78647 42.17 10.1598C42.7767 10.5331 43.22 11.1165 43.5 11.9098L49.59 27.7998C50.5234 30.2265 51.2 32.3498 51.62 34.1698C52.0867 35.9898 52.32 37.5998 52.32 38.9998V57.4798C52.32 58.3665 52.11 59.0198 51.69 59.4398C51.3167 59.8131 50.6867 59.9998 49.8 59.9998H39.23C38.2967 59.9998 37.5967 59.8131 37.13 59.4398C36.71 59.0198 36.5 58.3665 36.5 57.4798V47.6798H24.11V57.4798Z" fill="black"/>
<path d="M90.3628 59.9998H63.4828C62.5962 59.9998 61.9428 59.8131 61.5228 59.4398C61.1495 59.0198 60.9628 58.3665 60.9628 57.4798V12.1198C60.9628 11.2331 61.1495 10.6031 61.5228 10.2298C61.9428 9.8098 62.5962 9.5998 63.4828 9.5998H85.8128C90.3862 9.5998 93.7695 10.4865 95.9628 12.2598C98.1562 13.9865 99.2528 16.6698 99.2528 20.3098V23.6698C99.2528 25.6298 98.9028 27.2398 98.2028 28.4998C97.5495 29.7131 96.5228 30.6231 95.1228 31.2298C98.1095 31.5098 100.326 32.5365 101.773 34.3098C103.22 36.0831 103.943 38.6731 103.943 42.0798V48.5198C103.943 52.4398 102.823 55.3331 100.583 57.1998C98.3895 59.0665 94.9828 59.9998 90.3628 59.9998ZM76.7128 21.4998V29.0598H82.6628C83.5495 29.0598 84.2028 28.8265 84.6228 28.3598C85.0895 27.8931 85.3228 27.1931 85.3228 26.2598V24.2998C85.3228 23.3665 85.0895 22.6665 84.6228 22.1998C84.2028 21.7331 83.5495 21.4998 82.6628 21.4998H76.7128ZM76.7128 39.8398V48.0998H85.8128C86.6995 48.0998 87.3528 47.8665 87.7728 47.3998C88.2395 46.9331 88.4728 46.2331 88.4728 45.2998V42.5698C88.4728 41.6365 88.2395 40.9598 87.7728 40.5398C87.3528 40.0731 86.6995 39.8398 85.8128 39.8398H76.7128Z" fill="black"/>
<path d="M154.385 46.7698C154.385 48.9165 154.059 50.8765 153.406 52.6498C152.799 54.3765 151.679 55.8698 150.046 57.1298C148.459 58.3431 146.242 59.2998 143.395 59.9998C140.595 60.6998 137.026 61.0498 132.686 61.0498C128.346 61.0498 124.752 60.6998 121.905 59.9998C119.059 59.2998 116.819 58.3431 115.186 57.1298C113.599 55.8698 112.479 54.3765 111.826 52.6498C111.219 50.8765 110.915 48.9165 110.915 46.7698V22.8998C110.915 20.7531 111.219 18.8165 111.826 17.0898C112.479 15.3165 113.599 13.7998 115.186 12.5398C116.819 11.2798 119.059 10.2998 121.905 9.5998C124.752 8.8998 128.346 8.5498 132.686 8.5498C137.026 8.5498 140.595 8.8998 143.395 9.5998C146.242 10.2998 148.459 11.2798 150.046 12.5398C151.679 13.7998 152.799 15.3165 153.406 17.0898C154.059 18.8165 154.385 20.7531 154.385 22.8998V46.7698ZM126.805 44.2498C126.805 45.1831 127.155 45.9765 127.855 46.6298C128.555 47.2365 130.166 47.5398 132.686 47.5398C135.206 47.5398 136.816 47.2365 137.516 46.6298C138.216 45.9765 138.566 45.1831 138.566 44.2498V25.4198C138.566 24.5331 138.216 23.7865 137.516 23.1798C136.816 22.5265 135.206 22.1998 132.686 22.1998C130.166 22.1998 128.555 22.5265 127.855 23.1798C127.155 23.7865 126.805 24.5331 126.805 25.4198V44.2498Z" fill="black"/>
<path d="M206.207 46.7698C206.207 48.9165 205.88 50.8765 205.227 52.6498C204.62 54.3765 203.5 55.8698 201.867 57.1298C200.28 58.3431 198.087 59.2998 195.287 59.9998C192.487 60.6998 188.917 61.0498 184.577 61.0498C180.237 61.0498 176.667 60.6998 173.867 59.9998C171.067 59.2998 168.85 58.3431 167.217 57.1298C165.63 55.8698 164.51 54.3765 163.857 52.6498C163.25 50.8765 162.947 48.9165 162.947 46.7698V12.1198C162.947 11.2331 163.133 10.6031 163.507 10.2298C163.927 9.8098 164.58 9.5998 165.467 9.5998H176.457C177.344 9.5998 177.973 9.8098 178.347 10.2298C178.767 10.6031 178.977 11.2331 178.977 12.1198V44.0398C178.977 44.9731 179.327 45.7665 180.027 46.4198C180.727 47.0265 182.29 47.3298 184.717 47.3298C187.19 47.3298 188.777 47.0265 189.477 46.4198C190.177 45.7665 190.527 44.9731 190.527 44.0398V12.1198C190.527 11.2331 190.713 10.6031 191.087 10.2298C191.507 9.8098 192.16 9.5998 193.047 9.5998H203.687C204.573 9.5998 205.203 9.8098 205.577 10.2298C205.997 10.6031 206.207 11.2331 206.207 12.1198V46.7698Z" fill="black"/>
<path d="M239.323 59.9998H227.983C227.097 59.9998 226.443 59.8131 226.023 59.4398C225.65 59.0198 225.463 58.3665 225.463 57.4798V23.1098H215.173C214.287 23.1098 213.633 22.9231 213.213 22.5498C212.84 22.1298 212.653 21.4765 212.653 20.5898V12.1198C212.653 11.2331 212.84 10.6031 213.213 10.2298C213.633 9.8098 214.287 9.5998 215.173 9.5998H252.133C253.02 9.5998 253.65 9.8098 254.023 10.2298C254.443 10.6031 254.653 11.2331 254.653 12.1198V20.5898C254.653 21.4765 254.443 22.1298 254.023 22.5498C253.65 22.9231 253.02 23.1098 252.133 23.1098H241.843V57.4798C241.843 58.3665 241.633 59.0198 241.213 59.4398C240.84 59.8131 240.21 59.9998 239.323 59.9998Z" fill="black"/>
<path d="M289.45 59.9998H279.02C278.133 59.9998 277.48 59.8131 277.06 59.4398C276.687 59.0198 276.5 58.3665 276.5 57.4798V12.1198C276.5 11.2331 276.687 10.6031 277.06 10.2298C277.48 9.8098 278.133 9.5998 279.02 9.5998H290.29C291.037 9.5998 291.643 9.76314 292.11 10.0898C292.623 10.4165 293.09 10.9531 293.51 11.6998L299.81 23.1098C300.043 23.5298 300.23 23.8331 300.37 24.0198C300.557 24.2065 300.79 24.2998 301.07 24.2998H301.7C301.98 24.2998 302.19 24.2065 302.33 24.0198C302.517 23.8331 302.727 23.5298 302.96 23.1098L309.19 11.6998C309.61 10.9531 310.053 10.4165 310.52 10.0898C311.033 9.76314 311.663 9.5998 312.41 9.5998H323.75C324.637 9.5998 325.267 9.8098 325.64 10.2298C326.06 10.6031 326.27 11.2331 326.27 12.1198V57.4798C326.27 58.3665 326.06 59.0198 325.64 59.4398C325.267 59.8131 324.637 59.9998 323.75 59.9998H312.97C312.083 59.9998 311.43 59.8131 311.01 59.4398C310.637 59.0198 310.45 58.3665 310.45 57.4798V32.8398L306.32 40.4698C305.9 41.2631 305.387 41.8465 304.78 42.2198C304.22 42.5465 303.497 42.7098 302.61 42.7098H299.81C298.923 42.7098 298.177 42.5465 297.57 42.2198C297.01 41.8465 296.52 41.2631 296.1 40.4698L291.97 32.8398V57.4798C291.97 58.3665 291.76 59.0198 291.34 59.4398C290.967 59.8131 290.337 59.9998 289.45 59.9998Z" fill="black"/>
<path d="M370.904 59.9998H338.424C337.538 59.9998 336.884 59.8131 336.464 59.4398C336.091 59.0198 335.904 58.3665 335.904 57.4798V12.1198C335.904 11.2331 336.091 10.6031 336.464 10.2298C336.884 9.8098 337.538 9.5998 338.424 9.5998H370.904C371.791 9.5998 372.421 9.8098 372.794 10.2298C373.214 10.6031 373.424 11.2331 373.424 12.1198V20.3098C373.424 21.1965 373.214 21.8498 372.794 22.2698C372.421 22.6431 371.791 22.8298 370.904 22.8298H351.584V28.2198H365.234C366.121 28.2198 366.751 28.4298 367.124 28.8498C367.544 29.2231 367.754 29.8531 367.754 30.7398V38.2298C367.754 39.1165 367.544 39.7698 367.124 40.1898C366.751 40.5631 366.121 40.7498 365.234 40.7498H351.584V46.7698H370.904C371.791 46.7698 372.421 46.9798 372.794 47.3998C373.214 47.7731 373.424 48.4031 373.424 49.2898V57.4798C373.424 58.3665 373.214 59.0198 372.794 59.4398C372.421 59.8131 371.791 59.9998 370.904 59.9998Z" fill="black"/>
<path d="M28.1 24.2998L24.81 34.9398H35.8L32.51 24.2998C32.3234 23.8798 32.1134 23.5765 31.88 23.3898C31.6934 23.2031 31.46 23.1098 31.18 23.1098H29.43C29.15 23.1098 28.8934 23.2031 28.66 23.3898C28.4734 23.5765 28.2867 23.8798 28.1 24.2998ZM24.11 57.4798C24.11 58.3665 23.9 59.0198 23.48 59.4398C23.1067 59.8131 22.4767 59.9998 21.59 59.9998H11.3C10.4134 59.9998 9.76003 59.8131 9.34003 59.4398C8.9667 59.0198 8.78003 58.3665 8.78003 57.4798V38.9998C8.78003 37.5998 8.99003 35.9898 9.41003 34.1698C9.8767 32.3498 10.5767 30.2265 11.51 27.7998L17.6 11.9098C17.88 11.1165 18.3 10.5331 18.86 10.1598C19.4667 9.78647 20.2367 9.5998 21.17 9.5998H40C40.8867 9.5998 41.61 9.78647 42.17 10.1598C42.7767 10.5331 43.22 11.1165 43.5 11.9098L49.59 27.7998C50.5234 30.2265 51.2 32.3498 51.62 34.1698C52.0867 35.9898 52.32 37.5998 52.32 38.9998V57.4798C52.32 58.3665 52.11 59.0198 51.69 59.4398C51.3167 59.8131 50.6867 59.9998 49.8 59.9998H39.23C38.2967 59.9998 37.5967 59.8131 37.13 59.4398C36.71 59.0198 36.5 58.3665 36.5 57.4798V47.6798H24.11V57.4798Z" stroke="white" stroke-width="16" mask="url(#path-1-outside-1_440_198)"/>
<path d="M90.3628 59.9998H63.4828C62.5962 59.9998 61.9428 59.8131 61.5228 59.4398C61.1495 59.0198 60.9628 58.3665 60.9628 57.4798V12.1198C60.9628 11.2331 61.1495 10.6031 61.5228 10.2298C61.9428 9.8098 62.5962 9.5998 63.4828 9.5998H85.8128C90.3862 9.5998 93.7695 10.4865 95.9628 12.2598C98.1562 13.9865 99.2528 16.6698 99.2528 20.3098V23.6698C99.2528 25.6298 98.9028 27.2398 98.2028 28.4998C97.5495 29.7131 96.5228 30.6231 95.1228 31.2298C98.1095 31.5098 100.326 32.5365 101.773 34.3098C103.22 36.0831 103.943 38.6731 103.943 42.0798V48.5198C103.943 52.4398 102.823 55.3331 100.583 57.1998C98.3895 59.0665 94.9828 59.9998 90.3628 59.9998ZM76.7128 21.4998V29.0598H82.6628C83.5495 29.0598 84.2028 28.8265 84.6228 28.3598C85.0895 27.8931 85.3228 27.1931 85.3228 26.2598V24.2998C85.3228 23.3665 85.0895 22.6665 84.6228 22.1998C84.2028 21.7331 83.5495 21.4998 82.6628 21.4998H76.7128ZM76.7128 39.8398V48.0998H85.8128C86.6995 48.0998 87.3528 47.8665 87.7728 47.3998C88.2395 46.9331 88.4728 46.2331 88.4728 45.2998V42.5698C88.4728 41.6365 88.2395 40.9598 87.7728 40.5398C87.3528 40.0731 86.6995 39.8398 85.8128 39.8398H76.7128Z" stroke="white" stroke-width="16" mask="url(#path-1-outside-1_440_198)"/>
<path d="M154.385 46.7698C154.385 48.9165 154.059 50.8765 153.406 52.6498C152.799 54.3765 151.679 55.8698 150.046 57.1298C148.459 58.3431 146.242 59.2998 143.395 59.9998C140.595 60.6998 137.026 61.0498 132.686 61.0498C128.346 61.0498 124.752 60.6998 121.905 59.9998C119.059 59.2998 116.819 58.3431 115.186 57.1298C113.599 55.8698 112.479 54.3765 111.826 52.6498C111.219 50.8765 110.915 48.9165 110.915 46.7698V22.8998C110.915 20.7531 111.219 18.8165 111.826 17.0898C112.479 15.3165 113.599 13.7998 115.186 12.5398C116.819 11.2798 119.059 10.2998 121.905 9.5998C124.752 8.8998 128.346 8.5498 132.686 8.5498C137.026 8.5498 140.595 8.8998 143.395 9.5998C146.242 10.2998 148.459 11.2798 150.046 12.5398C151.679 13.7998 152.799 15.3165 153.406 17.0898C154.059 18.8165 154.385 20.7531 154.385 22.8998V46.7698ZM126.805 44.2498C126.805 45.1831 127.155 45.9765 127.855 46.6298C128.555 47.2365 130.166 47.5398 132.686 47.5398C135.206 47.5398 136.816 47.2365 137.516 46.6298C138.216 45.9765 138.566 45.1831 138.566 44.2498V25.4198C138.566 24.5331 138.216 23.7865 137.516 23.1798C136.816 22.5265 135.206 22.1998 132.686 22.1998C130.166 22.1998 128.555 22.5265 127.855 23.1798C127.155 23.7865 126.805 24.5331 126.805 25.4198V44.2498Z" stroke="white" stroke-width="16" mask="url(#path-1-outside-1_440_198)"/>
<path d="M206.207 46.7698C206.207 48.9165 205.88 50.8765 205.227 52.6498C204.62 54.3765 203.5 55.8698 201.867 57.1298C200.28 58.3431 198.087 59.2998 195.287 59.9998C192.487 60.6998 188.917 61.0498 184.577 61.0498C180.237 61.0498 176.667 60.6998 173.867 59.9998C171.067 59.2998 168.85 58.3431 167.217 57.1298C165.63 55.8698 164.51 54.3765 163.857 52.6498C163.25 50.8765 162.947 48.9165 162.947 46.7698V12.1198C162.947 11.2331 163.133 10.6031 163.507 10.2298C163.927 9.8098 164.58 9.5998 165.467 9.5998H176.457C177.344 9.5998 177.973 9.8098 178.347 10.2298C178.767 10.6031 178.977 11.2331 178.977 12.1198V44.0398C178.977 44.9731 179.327 45.7665 180.027 46.4198C180.727 47.0265 182.29 47.3298 184.717 47.3298C187.19 47.3298 188.777 47.0265 189.477 46.4198C190.177 45.7665 190.527 44.9731 190.527 44.0398V12.1198C190.527 11.2331 190.713 10.6031 191.087 10.2298C191.507 9.8098 192.16 9.5998 193.047 9.5998H203.687C204.573 9.5998 205.203 9.8098 205.577 10.2298C205.997 10.6031 206.207 11.2331 206.207 12.1198V46.7698Z" stroke="white" stroke-width="16" mask="url(#path-1-outside-1_440_198)"/>
<path d="M239.323 59.9998H227.983C227.097 59.9998 226.443 59.8131 226.023 59.4398C225.65 59.0198 225.463 58.3665 225.463 57.4798V23.1098H215.173C214.287 23.1098 213.633 22.9231 213.213 22.5498C212.84 22.1298 212.653 21.4765 212.653 20.5898V12.1198C212.653 11.2331 212.84 10.6031 213.213 10.2298C213.633 9.8098 214.287 9.5998 215.173 9.5998H252.133C253.02 9.5998 253.65 9.8098 254.023 10.2298C254.443 10.6031 254.653 11.2331 254.653 12.1198V20.5898C254.653 21.4765 254.443 22.1298 254.023 22.5498C253.65 22.9231 253.02 23.1098 252.133 23.1098H241.843V57.4798C241.843 58.3665 241.633 59.0198 241.213 59.4398C240.84 59.8131 240.21 59.9998 239.323 59.9998Z" stroke="white" stroke-width="16" mask="url(#path-1-outside-1_440_198)"/>
<path d="M289.45 59.9998H279.02C278.133 59.9998 277.48 59.8131 277.06 59.4398C276.687 59.0198 276.5 58.3665 276.5 57.4798V12.1198C276.5 11.2331 276.687 10.6031 277.06 10.2298C277.48 9.8098 278.133 9.5998 279.02 9.5998H290.29C291.037 9.5998 291.643 9.76314 292.11 10.0898C292.623 10.4165 293.09 10.9531 293.51 11.6998L299.81 23.1098C300.043 23.5298 300.23 23.8331 300.37 24.0198C300.557 24.2065 300.79 24.2998 301.07 24.2998H301.7C301.98 24.2998 302.19 24.2065 302.33 24.0198C302.517 23.8331 302.727 23.5298 302.96 23.1098L309.19 11.6998C309.61 10.9531 310.053 10.4165 310.52 10.0898C311.033 9.76314 311.663 9.5998 312.41 9.5998H323.75C324.637 9.5998 325.267 9.8098 325.64 10.2298C326.06 10.6031 326.27 11.2331 326.27 12.1198V57.4798C326.27 58.3665 326.06 59.0198 325.64 59.4398C325.267 59.8131 324.637 59.9998 323.75 59.9998H312.97C312.083 59.9998 311.43 59.8131 311.01 59.4398C310.637 59.0198 310.45 58.3665 310.45 57.4798V32.8398L306.32 40.4698C305.9 41.2631 305.387 41.8465 304.78 42.2198C304.22 42.5465 303.497 42.7098 302.61 42.7098H299.81C298.923 42.7098 298.177 42.5465 297.57 42.2198C297.01 41.8465 296.52 41.2631 296.1 40.4698L291.97 32.8398V57.4798C291.97 58.3665 291.76 59.0198 291.34 59.4398C290.967 59.8131 290.337 59.9998 289.45 59.9998Z" stroke="white" stroke-width="16" mask="url(#path-1-outside-1_440_198)"/>
<path d="M370.904 59.9998H338.424C337.538 59.9998 336.884 59.8131 336.464 59.4398C336.091 59.0198 335.904 58.3665 335.904 57.4798V12.1198C335.904 11.2331 336.091 10.6031 336.464 10.2298C336.884 9.8098 337.538 9.5998 338.424 9.5998H370.904C371.791 9.5998 372.421 9.8098 372.794 10.2298C373.214 10.6031 373.424 11.2331 373.424 12.1198V20.3098C373.424 21.1965 373.214 21.8498 372.794 22.2698C372.421 22.6431 371.791 22.8298 370.904 22.8298H351.584V28.2198H365.234C366.121 28.2198 366.751 28.4298 367.124 28.8498C367.544 29.2231 367.754 29.8531 367.754 30.7398V38.2298C367.754 39.1165 367.544 39.7698 367.124 40.1898C366.751 40.5631 366.121 40.7498 365.234 40.7498H351.584V46.7698H370.904C371.791 46.7698 372.421 46.9798 372.794 47.3998C373.214 47.7731 373.424 48.4031 373.424 49.2898V57.4798C373.424 58.3665 373.214 59.0198 372.794 59.4398C372.421 59.8131 371.791 59.9998 370.904 59.9998Z" stroke="white" stroke-width="16" mask="url(#path-1-outside-1_440_198)"/>
</svg>
