<svg width="28" height="28" viewBox="0 0 28 28" fill="none" xmlns="http://www.w3.org/2000/svg">
<path fill-rule="evenodd" clip-rule="evenodd" d="M11.6666 2.33324C11.6669 2.08993 11.591 1.85264 11.4497 1.65457C11.3084 1.45651 11.1087 1.30759 10.8785 1.22864C10.6484 1.1497 10.3993 1.14469 10.1662 1.2143C9.93302 1.28392 9.72748 1.42469 9.57831 1.6169L1.41164 12.1169C1.25233 12.3217 1.16583 12.5738 1.16583 12.8332C1.16583 13.0927 1.25233 13.3448 1.41164 13.5496L9.57831 24.0496C9.72748 24.2418 9.93302 24.3826 10.1662 24.4522C10.3993 24.5218 10.6484 24.5168 10.8785 24.4378C11.1087 24.3589 11.3084 24.21 11.4497 24.0119C11.591 23.8138 11.6669 23.5765 11.6666 23.3332V18.6782C17.9421 18.8089 20.9568 20.0001 22.4711 21.2951C23.9108 22.5259 24.1745 23.9737 24.4486 25.4904L24.5198 25.8812C24.5722 26.1609 24.7249 26.4118 24.9493 26.5867C25.1737 26.7616 25.4543 26.8485 25.7383 26.831C26.0222 26.8135 26.29 26.6929 26.4913 26.4917C26.6925 26.2906 26.8133 26.0229 26.831 25.7389C27.0305 22.5329 26.7306 17.8872 24.4661 14.0011C22.2681 10.2292 18.3096 7.3289 11.6666 7.02557V2.33324Z" fill="black"/>
</svg>
