<svg width="331" height="50" viewBox="0 0 331 50" fill="none" xmlns="http://www.w3.org/2000/svg">
<mask id="path-1-outside-1_402_196" maskUnits="userSpaceOnUse" x="0.899902" y="0.25" width="330" height="50" fill="black">
<rect fill="white" x="0.899902" y="0.25" width="330" height="50"/>
<path d="M31.3999 43H19.1999C15.0332 43 11.9332 42.1667 9.8999 40.5C7.8999 38.8333 6.8999 36.2667 6.8999 32.8V17.25C6.8999 13.7833 7.8999 11.2167 9.8999 9.55C11.9332 7.85 15.0332 7 19.1999 7H31.3999C32.0332 7 32.4832 7.15 32.7499 7.45C33.0499 7.71667 33.1999 8.16667 33.1999 8.8V14.85C33.1999 15.4833 33.0499 15.95 32.7499 16.25C32.4832 16.5167 32.0332 16.65 31.3999 16.65H21.3499C20.3166 16.65 19.5499 16.8667 19.0499 17.3C18.5499 17.7 18.2999 18.3167 18.2999 19.15V31.05C18.2999 31.8833 18.5499 32.5 19.0499 32.9C19.5499 33.2667 20.3166 33.45 21.3499 33.45H31.3999C32.0332 33.45 32.4832 33.6 32.7499 33.9C33.0499 34.1667 33.1999 34.6167 33.1999 35.25V41.2C33.1999 41.8333 33.0499 42.3 32.7499 42.6C32.4832 42.8667 32.0332 43 31.3999 43Z"/>
<path d="M69.1022 33.55C69.1022 35.0833 68.8689 36.4833 68.4022 37.75C67.9689 38.9833 67.1689 40.05 66.0022 40.95C64.8689 41.8167 63.2856 42.5 61.2522 43C59.2522 43.5 56.7022 43.75 53.6022 43.75C50.5022 43.75 47.9356 43.5 45.9022 43C43.8689 42.5 42.2689 41.8167 41.1022 40.95C39.9689 40.05 39.1689 38.9833 38.7022 37.75C38.2689 36.4833 38.0522 35.0833 38.0522 33.55V16.5C38.0522 14.9667 38.2689 13.5833 38.7022 12.35C39.1689 11.0833 39.9689 10 41.1022 9.1C42.2689 8.2 43.8689 7.5 45.9022 7C47.9356 6.5 50.5022 6.25 53.6022 6.25C56.7022 6.25 59.2522 6.5 61.2522 7C63.2856 7.5 64.8689 8.2 66.0022 9.1C67.1689 10 67.9689 11.0833 68.4022 12.35C68.8689 13.5833 69.1022 14.9667 69.1022 16.5V33.55ZM49.4022 31.75C49.4022 32.4167 49.6522 32.9833 50.1522 33.45C50.6522 33.8833 51.8022 34.1 53.6022 34.1C55.4022 34.1 56.5522 33.8833 57.0522 33.45C57.5522 32.9833 57.8022 32.4167 57.8022 31.75V18.3C57.8022 17.6667 57.5522 17.1333 57.0522 16.7C56.5522 16.2333 55.4022 16 53.6022 16C51.8022 16 50.6522 16.2333 50.1522 16.7C49.6522 17.1333 49.4022 17.6667 49.4022 18.3V31.75Z"/>
<path d="M84.7675 43H77.2675C76.6341 43 76.1675 42.8667 75.8675 42.6C75.6008 42.3 75.4675 41.8333 75.4675 41.2V8.8C75.4675 8.16667 75.6008 7.71667 75.8675 7.45C76.1675 7.15 76.6341 7 77.2675 7H82.4675C83.1008 7 83.6341 7.1 84.0675 7.3C84.5341 7.5 84.9841 7.85 85.4175 8.35L95.1175 19.45V8.8C95.1175 8.16667 95.2508 7.71667 95.5175 7.45C95.8175 7.15 96.2841 7 96.9175 7H104.417C105.051 7 105.501 7.15 105.767 7.45C106.067 7.71667 106.217 8.16667 106.217 8.8V41.2C106.217 41.8333 106.067 42.3 105.767 42.6C105.501 42.8667 105.051 43 104.417 43H96.9175C96.2841 43 95.8175 42.8667 95.5175 42.6C95.2508 42.3 95.1175 41.8333 95.1175 41.2V35.05L86.5675 24.7V41.2C86.5675 41.8333 86.4175 42.3 86.1175 42.6C85.8508 42.8667 85.4008 43 84.7675 43Z"/>
<path d="M130.114 43H122.014C121.381 43 120.914 42.8667 120.614 42.6C120.347 42.3 120.214 41.8333 120.214 41.2V16.65H112.864C112.231 16.65 111.764 16.5167 111.464 16.25C111.197 15.95 111.064 15.4833 111.064 14.85V8.8C111.064 8.16667 111.197 7.71667 111.464 7.45C111.764 7.15 112.231 7 112.864 7H139.264C139.897 7 140.347 7.15 140.614 7.45C140.914 7.71667 141.064 8.16667 141.064 8.8V14.85C141.064 15.4833 140.914 15.95 140.614 16.25C140.347 16.5167 139.897 16.65 139.264 16.65H131.914V41.2C131.914 41.8333 131.764 42.3 131.464 42.6C131.197 42.8667 130.747 43 130.114 43Z"/>
<path d="M156.975 17.5L154.625 25.1H162.475L160.125 17.5C159.991 17.2 159.841 16.9833 159.675 16.85C159.541 16.7167 159.375 16.65 159.175 16.65H157.925C157.725 16.65 157.541 16.7167 157.375 16.85C157.241 16.9833 157.108 17.2 156.975 17.5ZM154.125 41.2C154.125 41.8333 153.975 42.3 153.675 42.6C153.408 42.8667 152.958 43 152.325 43H144.975C144.341 43 143.875 42.8667 143.575 42.6C143.308 42.3 143.175 41.8333 143.175 41.2V28C143.175 27 143.325 25.85 143.625 24.55C143.958 23.25 144.458 21.7333 145.125 20L149.475 8.65C149.675 8.08333 149.975 7.66667 150.375 7.4C150.808 7.13333 151.358 7 152.025 7H165.475C166.108 7 166.625 7.13333 167.025 7.4C167.458 7.66667 167.775 8.08333 167.975 8.65L172.325 20C172.991 21.7333 173.475 23.25 173.775 24.55C174.108 25.85 174.275 27 174.275 28V41.2C174.275 41.8333 174.125 42.3 173.825 42.6C173.558 42.8667 173.108 43 172.475 43H164.925C164.258 43 163.758 42.8667 163.425 42.6C163.125 42.3 162.975 41.8333 162.975 41.2V34.2H154.125V41.2Z"/>
<path d="M204.398 43H192.198C188.031 43 184.931 42.1667 182.898 40.5C180.898 38.8333 179.898 36.2667 179.898 32.8V17.25C179.898 13.7833 180.898 11.2167 182.898 9.55C184.931 7.85 188.031 7 192.198 7H204.398C205.031 7 205.481 7.15 205.748 7.45C206.048 7.71667 206.198 8.16667 206.198 8.8V14.85C206.198 15.4833 206.048 15.95 205.748 16.25C205.481 16.5167 205.031 16.65 204.398 16.65H194.348C193.315 16.65 192.548 16.8667 192.048 17.3C191.548 17.7 191.298 18.3167 191.298 19.15V31.05C191.298 31.8833 191.548 32.5 192.048 32.9C192.548 33.2667 193.315 33.45 194.348 33.45H204.398C205.031 33.45 205.481 33.6 205.748 33.9C206.048 34.1667 206.198 34.6167 206.198 35.25V41.2C206.198 41.8333 206.048 42.3 205.748 42.6C205.481 42.8667 205.031 43 204.398 43Z"/>
<path d="M228.844 43H220.744C220.111 43 219.644 42.8667 219.344 42.6C219.078 42.3 218.944 41.8333 218.944 41.2V16.65H211.594C210.961 16.65 210.494 16.5167 210.194 16.25C209.928 15.95 209.794 15.4833 209.794 14.85V8.8C209.794 8.16667 209.928 7.71667 210.194 7.45C210.494 7.15 210.961 7 211.594 7H237.994C238.628 7 239.078 7.15 239.344 7.45C239.644 7.71667 239.794 8.16667 239.794 8.8V14.85C239.794 15.4833 239.644 15.95 239.344 16.25C239.078 16.5167 238.628 16.65 237.994 16.65H230.644V41.2C230.644 41.8333 230.494 42.3 230.194 42.6C229.928 42.8667 229.478 43 228.844 43Z"/>
<path d="M264.649 43H257.199C256.566 43 256.099 42.8667 255.799 42.6C255.532 42.3 255.399 41.8333 255.399 41.2V8.8C255.399 8.16667 255.532 7.71667 255.799 7.45C256.099 7.15 256.566 7 257.199 7H265.249C265.782 7 266.216 7.11667 266.549 7.35C266.916 7.58333 267.249 7.96667 267.549 8.5L272.049 16.65C272.216 16.95 272.349 17.1667 272.449 17.3C272.582 17.4333 272.749 17.5 272.949 17.5H273.399C273.599 17.5 273.749 17.4333 273.849 17.3C273.982 17.1667 274.132 16.95 274.299 16.65L278.749 8.5C279.049 7.96667 279.366 7.58333 279.699 7.35C280.066 7.11667 280.516 7 281.049 7H289.149C289.782 7 290.232 7.15 290.499 7.45C290.799 7.71667 290.949 8.16667 290.949 8.8V41.2C290.949 41.8333 290.799 42.3 290.499 42.6C290.232 42.8667 289.782 43 289.149 43H281.449C280.816 43 280.349 42.8667 280.049 42.6C279.782 42.3 279.649 41.8333 279.649 41.2V23.6L276.699 29.05C276.399 29.6167 276.032 30.0333 275.599 30.3C275.199 30.5333 274.682 30.65 274.049 30.65H272.049C271.416 30.65 270.882 30.5333 270.449 30.3C270.049 30.0333 269.699 29.6167 269.399 29.05L266.449 23.6V41.2C266.449 41.8333 266.299 42.3 265.999 42.6C265.732 42.8667 265.282 43 264.649 43Z"/>
<path d="M322.831 43H299.631C298.997 43 298.531 42.8667 298.231 42.6C297.964 42.3 297.831 41.8333 297.831 41.2V8.8C297.831 8.16667 297.964 7.71667 298.231 7.45C298.531 7.15 298.997 7 299.631 7H322.831C323.464 7 323.914 7.15 324.181 7.45C324.481 7.71667 324.631 8.16667 324.631 8.8V14.65C324.631 15.2833 324.481 15.75 324.181 16.05C323.914 16.3167 323.464 16.45 322.831 16.45H309.031V20.3H318.781C319.414 20.3 319.864 20.45 320.131 20.75C320.431 21.0167 320.581 21.4667 320.581 22.1V27.45C320.581 28.0833 320.431 28.55 320.131 28.85C319.864 29.1167 319.414 29.25 318.781 29.25H309.031V33.55H322.831C323.464 33.55 323.914 33.7 324.181 34C324.481 34.2667 324.631 34.7167 324.631 35.35V41.2C324.631 41.8333 324.481 42.3 324.181 42.6C323.914 42.8667 323.464 43 322.831 43Z"/>
</mask>
<path d="M31.3999 43H19.1999C15.0332 43 11.9332 42.1667 9.8999 40.5C7.8999 38.8333 6.8999 36.2667 6.8999 32.8V17.25C6.8999 13.7833 7.8999 11.2167 9.8999 9.55C11.9332 7.85 15.0332 7 19.1999 7H31.3999C32.0332 7 32.4832 7.15 32.7499 7.45C33.0499 7.71667 33.1999 8.16667 33.1999 8.8V14.85C33.1999 15.4833 33.0499 15.95 32.7499 16.25C32.4832 16.5167 32.0332 16.65 31.3999 16.65H21.3499C20.3166 16.65 19.5499 16.8667 19.0499 17.3C18.5499 17.7 18.2999 18.3167 18.2999 19.15V31.05C18.2999 31.8833 18.5499 32.5 19.0499 32.9C19.5499 33.2667 20.3166 33.45 21.3499 33.45H31.3999C32.0332 33.45 32.4832 33.6 32.7499 33.9C33.0499 34.1667 33.1999 34.6167 33.1999 35.25V41.2C33.1999 41.8333 33.0499 42.3 32.7499 42.6C32.4832 42.8667 32.0332 43 31.3999 43Z" fill="black"/>
<path d="M69.1022 33.55C69.1022 35.0833 68.8689 36.4833 68.4022 37.75C67.9689 38.9833 67.1689 40.05 66.0022 40.95C64.8689 41.8167 63.2856 42.5 61.2522 43C59.2522 43.5 56.7022 43.75 53.6022 43.75C50.5022 43.75 47.9356 43.5 45.9022 43C43.8689 42.5 42.2689 41.8167 41.1022 40.95C39.9689 40.05 39.1689 38.9833 38.7022 37.75C38.2689 36.4833 38.0522 35.0833 38.0522 33.55V16.5C38.0522 14.9667 38.2689 13.5833 38.7022 12.35C39.1689 11.0833 39.9689 10 41.1022 9.1C42.2689 8.2 43.8689 7.5 45.9022 7C47.9356 6.5 50.5022 6.25 53.6022 6.25C56.7022 6.25 59.2522 6.5 61.2522 7C63.2856 7.5 64.8689 8.2 66.0022 9.1C67.1689 10 67.9689 11.0833 68.4022 12.35C68.8689 13.5833 69.1022 14.9667 69.1022 16.5V33.55ZM49.4022 31.75C49.4022 32.4167 49.6522 32.9833 50.1522 33.45C50.6522 33.8833 51.8022 34.1 53.6022 34.1C55.4022 34.1 56.5522 33.8833 57.0522 33.45C57.5522 32.9833 57.8022 32.4167 57.8022 31.75V18.3C57.8022 17.6667 57.5522 17.1333 57.0522 16.7C56.5522 16.2333 55.4022 16 53.6022 16C51.8022 16 50.6522 16.2333 50.1522 16.7C49.6522 17.1333 49.4022 17.6667 49.4022 18.3V31.75Z" fill="black"/>
<path d="M84.7675 43H77.2675C76.6341 43 76.1675 42.8667 75.8675 42.6C75.6008 42.3 75.4675 41.8333 75.4675 41.2V8.8C75.4675 8.16667 75.6008 7.71667 75.8675 7.45C76.1675 7.15 76.6341 7 77.2675 7H82.4675C83.1008 7 83.6341 7.1 84.0675 7.3C84.5341 7.5 84.9841 7.85 85.4175 8.35L95.1175 19.45V8.8C95.1175 8.16667 95.2508 7.71667 95.5175 7.45C95.8175 7.15 96.2841 7 96.9175 7H104.417C105.051 7 105.501 7.15 105.767 7.45C106.067 7.71667 106.217 8.16667 106.217 8.8V41.2C106.217 41.8333 106.067 42.3 105.767 42.6C105.501 42.8667 105.051 43 104.417 43H96.9175C96.2841 43 95.8175 42.8667 95.5175 42.6C95.2508 42.3 95.1175 41.8333 95.1175 41.2V35.05L86.5675 24.7V41.2C86.5675 41.8333 86.4175 42.3 86.1175 42.6C85.8508 42.8667 85.4008 43 84.7675 43Z" fill="black"/>
<path d="M130.114 43H122.014C121.381 43 120.914 42.8667 120.614 42.6C120.347 42.3 120.214 41.8333 120.214 41.2V16.65H112.864C112.231 16.65 111.764 16.5167 111.464 16.25C111.197 15.95 111.064 15.4833 111.064 14.85V8.8C111.064 8.16667 111.197 7.71667 111.464 7.45C111.764 7.15 112.231 7 112.864 7H139.264C139.897 7 140.347 7.15 140.614 7.45C140.914 7.71667 141.064 8.16667 141.064 8.8V14.85C141.064 15.4833 140.914 15.95 140.614 16.25C140.347 16.5167 139.897 16.65 139.264 16.65H131.914V41.2C131.914 41.8333 131.764 42.3 131.464 42.6C131.197 42.8667 130.747 43 130.114 43Z" fill="black"/>
<path d="M156.975 17.5L154.625 25.1H162.475L160.125 17.5C159.991 17.2 159.841 16.9833 159.675 16.85C159.541 16.7167 159.375 16.65 159.175 16.65H157.925C157.725 16.65 157.541 16.7167 157.375 16.85C157.241 16.9833 157.108 17.2 156.975 17.5ZM154.125 41.2C154.125 41.8333 153.975 42.3 153.675 42.6C153.408 42.8667 152.958 43 152.325 43H144.975C144.341 43 143.875 42.8667 143.575 42.6C143.308 42.3 143.175 41.8333 143.175 41.2V28C143.175 27 143.325 25.85 143.625 24.55C143.958 23.25 144.458 21.7333 145.125 20L149.475 8.65C149.675 8.08333 149.975 7.66667 150.375 7.4C150.808 7.13333 151.358 7 152.025 7H165.475C166.108 7 166.625 7.13333 167.025 7.4C167.458 7.66667 167.775 8.08333 167.975 8.65L172.325 20C172.991 21.7333 173.475 23.25 173.775 24.55C174.108 25.85 174.275 27 174.275 28V41.2C174.275 41.8333 174.125 42.3 173.825 42.6C173.558 42.8667 173.108 43 172.475 43H164.925C164.258 43 163.758 42.8667 163.425 42.6C163.125 42.3 162.975 41.8333 162.975 41.2V34.2H154.125V41.2Z" fill="black"/>
<path d="M204.398 43H192.198C188.031 43 184.931 42.1667 182.898 40.5C180.898 38.8333 179.898 36.2667 179.898 32.8V17.25C179.898 13.7833 180.898 11.2167 182.898 9.55C184.931 7.85 188.031 7 192.198 7H204.398C205.031 7 205.481 7.15 205.748 7.45C206.048 7.71667 206.198 8.16667 206.198 8.8V14.85C206.198 15.4833 206.048 15.95 205.748 16.25C205.481 16.5167 205.031 16.65 204.398 16.65H194.348C193.315 16.65 192.548 16.8667 192.048 17.3C191.548 17.7 191.298 18.3167 191.298 19.15V31.05C191.298 31.8833 191.548 32.5 192.048 32.9C192.548 33.2667 193.315 33.45 194.348 33.45H204.398C205.031 33.45 205.481 33.6 205.748 33.9C206.048 34.1667 206.198 34.6167 206.198 35.25V41.2C206.198 41.8333 206.048 42.3 205.748 42.6C205.481 42.8667 205.031 43 204.398 43Z" fill="black"/>
<path d="M228.844 43H220.744C220.111 43 219.644 42.8667 219.344 42.6C219.078 42.3 218.944 41.8333 218.944 41.2V16.65H211.594C210.961 16.65 210.494 16.5167 210.194 16.25C209.928 15.95 209.794 15.4833 209.794 14.85V8.8C209.794 8.16667 209.928 7.71667 210.194 7.45C210.494 7.15 210.961 7 211.594 7H237.994C238.628 7 239.078 7.15 239.344 7.45C239.644 7.71667 239.794 8.16667 239.794 8.8V14.85C239.794 15.4833 239.644 15.95 239.344 16.25C239.078 16.5167 238.628 16.65 237.994 16.65H230.644V41.2C230.644 41.8333 230.494 42.3 230.194 42.6C229.928 42.8667 229.478 43 228.844 43Z" fill="black"/>
<path d="M264.649 43H257.199C256.566 43 256.099 42.8667 255.799 42.6C255.532 42.3 255.399 41.8333 255.399 41.2V8.8C255.399 8.16667 255.532 7.71667 255.799 7.45C256.099 7.15 256.566 7 257.199 7H265.249C265.782 7 266.216 7.11667 266.549 7.35C266.916 7.58333 267.249 7.96667 267.549 8.5L272.049 16.65C272.216 16.95 272.349 17.1667 272.449 17.3C272.582 17.4333 272.749 17.5 272.949 17.5H273.399C273.599 17.5 273.749 17.4333 273.849 17.3C273.982 17.1667 274.132 16.95 274.299 16.65L278.749 8.5C279.049 7.96667 279.366 7.58333 279.699 7.35C280.066 7.11667 280.516 7 281.049 7H289.149C289.782 7 290.232 7.15 290.499 7.45C290.799 7.71667 290.949 8.16667 290.949 8.8V41.2C290.949 41.8333 290.799 42.3 290.499 42.6C290.232 42.8667 289.782 43 289.149 43H281.449C280.816 43 280.349 42.8667 280.049 42.6C279.782 42.3 279.649 41.8333 279.649 41.2V23.6L276.699 29.05C276.399 29.6167 276.032 30.0333 275.599 30.3C275.199 30.5333 274.682 30.65 274.049 30.65H272.049C271.416 30.65 270.882 30.5333 270.449 30.3C270.049 30.0333 269.699 29.6167 269.399 29.05L266.449 23.6V41.2C266.449 41.8333 266.299 42.3 265.999 42.6C265.732 42.8667 265.282 43 264.649 43Z" fill="black"/>
<path d="M322.831 43H299.631C298.997 43 298.531 42.8667 298.231 42.6C297.964 42.3 297.831 41.8333 297.831 41.2V8.8C297.831 8.16667 297.964 7.71667 298.231 7.45C298.531 7.15 298.997 7 299.631 7H322.831C323.464 7 323.914 7.15 324.181 7.45C324.481 7.71667 324.631 8.16667 324.631 8.8V14.65C324.631 15.2833 324.481 15.75 324.181 16.05C323.914 16.3167 323.464 16.45 322.831 16.45H309.031V20.3H318.781C319.414 20.3 319.864 20.45 320.131 20.75C320.431 21.0167 320.581 21.4667 320.581 22.1V27.45C320.581 28.0833 320.431 28.55 320.131 28.85C319.864 29.1167 319.414 29.25 318.781 29.25H309.031V33.55H322.831C323.464 33.55 323.914 33.7 324.181 34C324.481 34.2667 324.631 34.7167 324.631 35.35V41.2C324.631 41.8333 324.481 42.3 324.181 42.6C323.914 42.8667 323.464 43 322.831 43Z" fill="black"/>
<path d="M31.3999 43H19.1999C15.0332 43 11.9332 42.1667 9.8999 40.5C7.8999 38.8333 6.8999 36.2667 6.8999 32.8V17.25C6.8999 13.7833 7.8999 11.2167 9.8999 9.55C11.9332 7.85 15.0332 7 19.1999 7H31.3999C32.0332 7 32.4832 7.15 32.7499 7.45C33.0499 7.71667 33.1999 8.16667 33.1999 8.8V14.85C33.1999 15.4833 33.0499 15.95 32.7499 16.25C32.4832 16.5167 32.0332 16.65 31.3999 16.65H21.3499C20.3166 16.65 19.5499 16.8667 19.0499 17.3C18.5499 17.7 18.2999 18.3167 18.2999 19.15V31.05C18.2999 31.8833 18.5499 32.5 19.0499 32.9C19.5499 33.2667 20.3166 33.45 21.3499 33.45H31.3999C32.0332 33.45 32.4832 33.6 32.7499 33.9C33.0499 34.1667 33.1999 34.6167 33.1999 35.25V41.2C33.1999 41.8333 33.0499 42.3 32.7499 42.6C32.4832 42.8667 32.0332 43 31.3999 43Z" stroke="white" stroke-width="12" mask="url(#path-1-outside-1_402_196)"/>
<path d="M69.1022 33.55C69.1022 35.0833 68.8689 36.4833 68.4022 37.75C67.9689 38.9833 67.1689 40.05 66.0022 40.95C64.8689 41.8167 63.2856 42.5 61.2522 43C59.2522 43.5 56.7022 43.75 53.6022 43.75C50.5022 43.75 47.9356 43.5 45.9022 43C43.8689 42.5 42.2689 41.8167 41.1022 40.95C39.9689 40.05 39.1689 38.9833 38.7022 37.75C38.2689 36.4833 38.0522 35.0833 38.0522 33.55V16.5C38.0522 14.9667 38.2689 13.5833 38.7022 12.35C39.1689 11.0833 39.9689 10 41.1022 9.1C42.2689 8.2 43.8689 7.5 45.9022 7C47.9356 6.5 50.5022 6.25 53.6022 6.25C56.7022 6.25 59.2522 6.5 61.2522 7C63.2856 7.5 64.8689 8.2 66.0022 9.1C67.1689 10 67.9689 11.0833 68.4022 12.35C68.8689 13.5833 69.1022 14.9667 69.1022 16.5V33.55ZM49.4022 31.75C49.4022 32.4167 49.6522 32.9833 50.1522 33.45C50.6522 33.8833 51.8022 34.1 53.6022 34.1C55.4022 34.1 56.5522 33.8833 57.0522 33.45C57.5522 32.9833 57.8022 32.4167 57.8022 31.75V18.3C57.8022 17.6667 57.5522 17.1333 57.0522 16.7C56.5522 16.2333 55.4022 16 53.6022 16C51.8022 16 50.6522 16.2333 50.1522 16.7C49.6522 17.1333 49.4022 17.6667 49.4022 18.3V31.75Z" stroke="white" stroke-width="12" mask="url(#path-1-outside-1_402_196)"/>
<path d="M84.7675 43H77.2675C76.6341 43 76.1675 42.8667 75.8675 42.6C75.6008 42.3 75.4675 41.8333 75.4675 41.2V8.8C75.4675 8.16667 75.6008 7.71667 75.8675 7.45C76.1675 7.15 76.6341 7 77.2675 7H82.4675C83.1008 7 83.6341 7.1 84.0675 7.3C84.5341 7.5 84.9841 7.85 85.4175 8.35L95.1175 19.45V8.8C95.1175 8.16667 95.2508 7.71667 95.5175 7.45C95.8175 7.15 96.2841 7 96.9175 7H104.417C105.051 7 105.501 7.15 105.767 7.45C106.067 7.71667 106.217 8.16667 106.217 8.8V41.2C106.217 41.8333 106.067 42.3 105.767 42.6C105.501 42.8667 105.051 43 104.417 43H96.9175C96.2841 43 95.8175 42.8667 95.5175 42.6C95.2508 42.3 95.1175 41.8333 95.1175 41.2V35.05L86.5675 24.7V41.2C86.5675 41.8333 86.4175 42.3 86.1175 42.6C85.8508 42.8667 85.4008 43 84.7675 43Z" stroke="white" stroke-width="12" mask="url(#path-1-outside-1_402_196)"/>
<path d="M130.114 43H122.014C121.381 43 120.914 42.8667 120.614 42.6C120.347 42.3 120.214 41.8333 120.214 41.2V16.65H112.864C112.231 16.65 111.764 16.5167 111.464 16.25C111.197 15.95 111.064 15.4833 111.064 14.85V8.8C111.064 8.16667 111.197 7.71667 111.464 7.45C111.764 7.15 112.231 7 112.864 7H139.264C139.897 7 140.347 7.15 140.614 7.45C140.914 7.71667 141.064 8.16667 141.064 8.8V14.85C141.064 15.4833 140.914 15.95 140.614 16.25C140.347 16.5167 139.897 16.65 139.264 16.65H131.914V41.2C131.914 41.8333 131.764 42.3 131.464 42.6C131.197 42.8667 130.747 43 130.114 43Z" stroke="white" stroke-width="12" mask="url(#path-1-outside-1_402_196)"/>
<path d="M156.975 17.5L154.625 25.1H162.475L160.125 17.5C159.991 17.2 159.841 16.9833 159.675 16.85C159.541 16.7167 159.375 16.65 159.175 16.65H157.925C157.725 16.65 157.541 16.7167 157.375 16.85C157.241 16.9833 157.108 17.2 156.975 17.5ZM154.125 41.2C154.125 41.8333 153.975 42.3 153.675 42.6C153.408 42.8667 152.958 43 152.325 43H144.975C144.341 43 143.875 42.8667 143.575 42.6C143.308 42.3 143.175 41.8333 143.175 41.2V28C143.175 27 143.325 25.85 143.625 24.55C143.958 23.25 144.458 21.7333 145.125 20L149.475 8.65C149.675 8.08333 149.975 7.66667 150.375 7.4C150.808 7.13333 151.358 7 152.025 7H165.475C166.108 7 166.625 7.13333 167.025 7.4C167.458 7.66667 167.775 8.08333 167.975 8.65L172.325 20C172.991 21.7333 173.475 23.25 173.775 24.55C174.108 25.85 174.275 27 174.275 28V41.2C174.275 41.8333 174.125 42.3 173.825 42.6C173.558 42.8667 173.108 43 172.475 43H164.925C164.258 43 163.758 42.8667 163.425 42.6C163.125 42.3 162.975 41.8333 162.975 41.2V34.2H154.125V41.2Z" stroke="white" stroke-width="12" mask="url(#path-1-outside-1_402_196)"/>
<path d="M204.398 43H192.198C188.031 43 184.931 42.1667 182.898 40.5C180.898 38.8333 179.898 36.2667 179.898 32.8V17.25C179.898 13.7833 180.898 11.2167 182.898 9.55C184.931 7.85 188.031 7 192.198 7H204.398C205.031 7 205.481 7.15 205.748 7.45C206.048 7.71667 206.198 8.16667 206.198 8.8V14.85C206.198 15.4833 206.048 15.95 205.748 16.25C205.481 16.5167 205.031 16.65 204.398 16.65H194.348C193.315 16.65 192.548 16.8667 192.048 17.3C191.548 17.7 191.298 18.3167 191.298 19.15V31.05C191.298 31.8833 191.548 32.5 192.048 32.9C192.548 33.2667 193.315 33.45 194.348 33.45H204.398C205.031 33.45 205.481 33.6 205.748 33.9C206.048 34.1667 206.198 34.6167 206.198 35.25V41.2C206.198 41.8333 206.048 42.3 205.748 42.6C205.481 42.8667 205.031 43 204.398 43Z" stroke="white" stroke-width="12" mask="url(#path-1-outside-1_402_196)"/>
<path d="M228.844 43H220.744C220.111 43 219.644 42.8667 219.344 42.6C219.078 42.3 218.944 41.8333 218.944 41.2V16.65H211.594C210.961 16.65 210.494 16.5167 210.194 16.25C209.928 15.95 209.794 15.4833 209.794 14.85V8.8C209.794 8.16667 209.928 7.71667 210.194 7.45C210.494 7.15 210.961 7 211.594 7H237.994C238.628 7 239.078 7.15 239.344 7.45C239.644 7.71667 239.794 8.16667 239.794 8.8V14.85C239.794 15.4833 239.644 15.95 239.344 16.25C239.078 16.5167 238.628 16.65 237.994 16.65H230.644V41.2C230.644 41.8333 230.494 42.3 230.194 42.6C229.928 42.8667 229.478 43 228.844 43Z" stroke="white" stroke-width="12" mask="url(#path-1-outside-1_402_196)"/>
<path d="M264.649 43H257.199C256.566 43 256.099 42.8667 255.799 42.6C255.532 42.3 255.399 41.8333 255.399 41.2V8.8C255.399 8.16667 255.532 7.71667 255.799 7.45C256.099 7.15 256.566 7 257.199 7H265.249C265.782 7 266.216 7.11667 266.549 7.35C266.916 7.58333 267.249 7.96667 267.549 8.5L272.049 16.65C272.216 16.95 272.349 17.1667 272.449 17.3C272.582 17.4333 272.749 17.5 272.949 17.5H273.399C273.599 17.5 273.749 17.4333 273.849 17.3C273.982 17.1667 274.132 16.95 274.299 16.65L278.749 8.5C279.049 7.96667 279.366 7.58333 279.699 7.35C280.066 7.11667 280.516 7 281.049 7H289.149C289.782 7 290.232 7.15 290.499 7.45C290.799 7.71667 290.949 8.16667 290.949 8.8V41.2C290.949 41.8333 290.799 42.3 290.499 42.6C290.232 42.8667 289.782 43 289.149 43H281.449C280.816 43 280.349 42.8667 280.049 42.6C279.782 42.3 279.649 41.8333 279.649 41.2V23.6L276.699 29.05C276.399 29.6167 276.032 30.0333 275.599 30.3C275.199 30.5333 274.682 30.65 274.049 30.65H272.049C271.416 30.65 270.882 30.5333 270.449 30.3C270.049 30.0333 269.699 29.6167 269.399 29.05L266.449 23.6V41.2C266.449 41.8333 266.299 42.3 265.999 42.6C265.732 42.8667 265.282 43 264.649 43Z" stroke="white" stroke-width="12" mask="url(#path-1-outside-1_402_196)"/>
<path d="M322.831 43H299.631C298.997 43 298.531 42.8667 298.231 42.6C297.964 42.3 297.831 41.8333 297.831 41.2V8.8C297.831 8.16667 297.964 7.71667 298.231 7.45C298.531 7.15 298.997 7 299.631 7H322.831C323.464 7 323.914 7.15 324.181 7.45C324.481 7.71667 324.631 8.16667 324.631 8.8V14.65C324.631 15.2833 324.481 15.75 324.181 16.05C323.914 16.3167 323.464 16.45 322.831 16.45H309.031V20.3H318.781C319.414 20.3 319.864 20.45 320.131 20.75C320.431 21.0167 320.581 21.4667 320.581 22.1V27.45C320.581 28.0833 320.431 28.55 320.131 28.85C319.864 29.1167 319.414 29.25 318.781 29.25H309.031V33.55H322.831C323.464 33.55 323.914 33.7 324.181 34C324.481 34.2667 324.631 34.7167 324.631 35.35V41.2C324.631 41.8333 324.481 42.3 324.181 42.6C323.914 42.8667 323.464 43 322.831 43Z" stroke="white" stroke-width="12" mask="url(#path-1-outside-1_402_196)"/>
</svg>
