<svg width="51" height="63" viewBox="0 0 51 63" fill="none" xmlns="http://www.w3.org/2000/svg">
<path d="M12.9431 0.333496H20.14V3.14827H15.9525V5.96305H20.14V8.77782H12.9431V0.333496ZM21.5777 0.333496H28.7774V2.78272H24.5899V3.27099H28.7774V8.90055H21.5777V6.33121H25.7652V5.84033H21.5777V0.333496ZM30.2179 0.333496H37.4121V2.78272H33.2246V3.27099H37.4121V8.90055H30.2179V6.33121H34.4054V5.84033H30.2179V0.333496Z" fill="black"/>
<path fill-rule="evenodd" clip-rule="evenodd" d="M25.4749 63.0002L6.08954 57.9659L0.375 12.6501H50.625L44.9133 57.9607L25.4749 63.0002ZM11.6729 33.163L12.2061 38.7195H32.8002L32.1107 45.9261L25.4833 47.6025H25.4777L18.8614 45.9313L18.4371 41.5003H12.4713L13.3032 50.2266L25.4749 53.3861L37.6661 50.2266L39.1513 34.654L39.2964 33.163L40.3684 21.9118H10.6037L11.1453 27.4708H33.8583L33.3167 33.163H11.6729V33.163Z" fill="black"/>
</svg>
