<svg width="51" height="63" viewBox="0 0 51 63" fill="none" xmlns="http://www.w3.org/2000/svg">
<path d="M6.18164 0.333496H9.20222V3.12477H11.966V0.333496H14.9866V8.78305H11.966V5.95521H9.20222V8.78305H6.18443V0.333496H6.18164ZM18.9563 3.13522H16.2986V0.333496H24.6374V3.13522H21.9769V8.78305H18.9563V3.13522ZM25.9606 0.333496H29.1096L31.047 3.30233L32.9816 0.333496H36.1306V8.78305H33.124V4.59483L31.047 7.60021H30.994L28.9142 4.59744V8.78305H25.9606V0.333496ZM37.6326 0.333496H40.6559V5.99177H44.8993V8.78566H37.6326V0.333496Z" fill="black"/>
<path fill-rule="evenodd" clip-rule="evenodd" d="M6.08675 57.966L0.375 12.6501H50.625L44.9105 57.9607L25.4721 63.0002L6.08675 57.966ZM17.6359 33.1604L17.0943 27.4682H39.8324L40.3628 21.9118H10.6037L12.2061 38.7195H32.8002L32.1107 45.9261L25.4833 47.6025H25.4777L18.8614 45.9313L18.4371 41.5003H12.4685L13.3004 50.2266L25.4721 53.3861L37.6633 50.2266L39.1485 34.654L39.2936 33.163H17.6359V33.1604Z" fill="black"/>
</svg>
