<svg width="22" height="20" viewBox="0 0 22 20" fill="none" xmlns="http://www.w3.org/2000/svg">
<path d="M20.88 8.40986C19.8634 9.25925 18.5515 9.67094 17.2319 9.55473C15.9122 9.43851 14.6925 8.80386 13.84 7.78986C12.06 5.66986 12.34 2.49986 14.45 0.749863L14.96 0.369863C14.1326 1.267 13.6601 2.43464 13.6306 3.65471C13.6012 4.87478 14.0168 6.06386 14.8 6.99986C16.43 8.93986 19.25 9.31986 21.34 7.96986L20.88 8.40986ZM19.1 12.4999C18.3471 13.1347 17.4762 13.6147 16.5373 13.9122C15.5984 14.2096 14.6101 14.3187 13.6289 14.2333C12.6478 14.1478 11.6931 13.8694 10.8199 13.414C9.94657 12.9587 9.17179 12.3354 8.54001 11.5799C5.87001 8.40986 6.29001 3.67986 9.46001 0.999863L10.38 0.359863C9.19207 1.70547 8.52657 3.43277 8.50455 5.22759C8.48253 7.0224 9.10545 8.76551 10.26 10.1399C12.68 12.9999 16.8 13.6299 19.91 11.7199L19.1 12.4999ZM17.97 17.3799C13.53 21.1099 6.90001 20.5299 3.17001 16.0799C-0.549994 11.6399 0.0300052 4.99986 4.47001 1.28986L5.58001 0.499863C2.07001 4.29986 1.85001 10.2299 5.28001 14.3199C8.71001 18.3999 14.59 19.2199 18.96 16.4299L17.97 17.3799Z" fill="black"/>
</svg>
