<svg width="40" height="40" viewBox="0 0 40 40" fill="none" xmlns="http://www.w3.org/2000/svg">
<mask id="path-1-inside-1_256_183" fill="white">
<path fill-rule="evenodd" clip-rule="evenodd" d="M24.6812 0.844262C25.0262 0.72588 25.3996 0.718239 25.7491 0.822407C26.0986 0.926575 26.4069 1.13735 26.6307 1.42526L38.8807 17.1753C39.1197 17.4825 39.2495 17.8606 39.2495 18.2498C39.2495 18.639 39.1197 19.0171 38.8807 19.3243L26.6307 35.0743C26.4068 35.3619 26.0986 35.5724 25.7492 35.6764C25.3998 35.7803 25.0267 35.7726 24.6819 35.6543C24.3371 35.536 24.0379 35.3129 23.826 35.0163C23.6141 34.7197 23.5001 34.3643 23.5 33.9998V27.0173C14.0867 27.2133 9.56475 29 7.29325 30.9425C5.13375 32.7888 4.73825 34.9605 4.327 37.2355L4.22025 37.8218C4.14172 38.2413 3.9126 38.6176 3.576 38.88C3.23941 39.1423 2.81853 39.2727 2.39256 39.2464C1.96659 39.2202 1.56489 39.0392 1.26303 38.7375C0.961171 38.4358 0.779963 38.0342 0.753499 37.6083C0.452499 32.7993 0.903999 25.8308 4.30075 20.0015C7.59775 14.3438 13.5337 9.99326 23.5 9.53826V2.49976C23.4999 2.13515 23.6137 1.77961 23.8255 1.48281C24.0372 1.186 24.3364 0.962761 24.6812 0.844262Z"/>
</mask>
<path fill-rule="evenodd" clip-rule="evenodd" d="M24.6812 0.844262C25.0262 0.72588 25.3996 0.718239 25.7491 0.822407C26.0986 0.926575 26.4069 1.13735 26.6307 1.42526L38.8807 17.1753C39.1197 17.4825 39.2495 17.8606 39.2495 18.2498C39.2495 18.639 39.1197 19.0171 38.8807 19.3243L26.6307 35.0743C26.4068 35.3619 26.0986 35.5724 25.7492 35.6764C25.3998 35.7803 25.0267 35.7726 24.6819 35.6543C24.3371 35.536 24.0379 35.3129 23.826 35.0163C23.6141 34.7197 23.5001 34.3643 23.5 33.9998V27.0173C14.0867 27.2133 9.56475 29 7.29325 30.9425C5.13375 32.7888 4.73825 34.9605 4.327 37.2355L4.22025 37.8218C4.14172 38.2413 3.9126 38.6176 3.576 38.88C3.23941 39.1423 2.81853 39.2727 2.39256 39.2464C1.96659 39.2202 1.56489 39.0392 1.26303 38.7375C0.961171 38.4358 0.779963 38.0342 0.753499 37.6083C0.452499 32.7993 0.903999 25.8308 4.30075 20.0015C7.59775 14.3438 13.5337 9.99326 23.5 9.53826V2.49976C23.4999 2.13515 23.6137 1.77961 23.8255 1.48281C24.0372 1.186 24.3364 0.962761 24.6812 0.844262Z" fill="white"/>
<path d="M26.6307 1.42526L23.4731 3.88069L23.4733 3.88102L26.6307 1.42526ZM38.8807 17.1753L35.7233 19.631L35.7235 19.6313L38.8807 17.1753ZM38.8807 19.3243L35.7235 16.8683L35.7233 16.8685L38.8807 19.3243ZM26.6307 35.0743L29.7868 37.5318L29.7882 37.53L26.6307 35.0743ZM23.5 33.9998H19.5V34.0013L23.5 33.9998ZM23.5 27.0173H27.5V22.9331L23.4167 23.0181L23.5 27.0173ZM7.29325 30.9425L9.89256 33.9828L9.89294 33.9825L7.29325 30.9425ZM4.327 37.2355L8.26229 37.9521L8.2632 37.9471L4.327 37.2355ZM4.22025 37.8218L8.15195 38.5578L8.15377 38.5481L8.15554 38.5383L4.22025 37.8218ZM0.753499 37.6083L4.7458 37.3602L4.74569 37.3584L0.753499 37.6083ZM4.30075 20.0015L0.844742 17.9876L0.844693 17.9876L4.30075 20.0015ZM23.5 9.53826L23.6824 13.5341L27.5 13.3598V9.53826H23.5ZM23.5 2.49976L27.5 2.49976V2.49862L23.5 2.49976ZM25.9796 4.62769C25.536 4.7799 25.056 4.78972 24.6066 4.65579L26.8915 -3.01098C25.7431 -3.35324 24.5164 -3.32814 23.3829 -2.93917L25.9796 4.62769ZM24.6066 4.65579C24.1572 4.52186 23.7609 4.25086 23.4731 3.88069L29.7884 -1.03017C29.0528 -1.97617 28.04 -2.66871 26.8915 -3.01098L24.6066 4.65579ZM23.4733 3.88102L35.7233 19.631L42.0382 14.7195L29.7882 -1.0305L23.4733 3.88102ZM35.7235 19.6313C35.4163 19.2363 35.2495 18.7502 35.2495 18.2498H43.2495C43.2495 16.9709 42.8232 15.7286 42.038 14.7193L35.7235 19.6313ZM35.2495 18.2498C35.2495 17.7493 35.4163 17.2632 35.7235 16.8683L42.038 21.7803C42.8232 20.7709 43.2495 19.5286 43.2495 18.2498H35.2495ZM35.7233 16.8685L23.4733 32.6185L29.7882 37.53L42.0382 21.78L35.7233 16.8685ZM23.4747 32.6167C23.7627 32.2469 24.1589 31.9763 24.6082 31.8426L26.8903 39.5102C28.0383 39.1685 29.0509 38.4768 29.7867 37.5318L23.4747 32.6167ZM24.6082 31.8426C25.0573 31.7089 25.5371 31.7188 25.9804 31.8709L23.3834 39.4377C24.5163 39.8265 25.7423 39.8518 26.8903 39.5102L24.6082 31.8426ZM25.9804 31.8709C26.4237 32.0231 26.8084 32.3099 27.0808 32.6912L20.5712 37.3414C21.2674 38.316 22.2505 39.0489 23.3834 39.4377L25.9804 31.8709ZM27.0808 32.6912C27.3533 33.0726 27.4998 33.5295 27.5 33.9982L19.5 34.0013C19.5005 35.1991 19.875 36.3668 20.5712 37.3414L27.0808 32.6912ZM27.5 33.9998V27.0173H19.5V33.9998H27.5ZM23.4167 23.0181C13.6895 23.2207 8.02265 25.0556 4.69356 27.9025L9.89294 33.9825C11.1068 32.9444 14.484 31.2059 23.5833 31.0164L23.4167 23.0181ZM4.69394 27.9022C1.34352 30.7666 0.793509 34.2962 0.390795 36.524L8.2632 37.9471C8.68299 35.6248 8.92398 34.8109 9.89256 33.9828L4.69394 27.9022ZM0.391708 36.5189L0.284958 37.1052L8.15554 38.5383L8.26229 37.9521L0.391708 36.5189ZM0.288552 37.0857C0.389521 36.5464 0.684104 36.0625 1.11687 35.7252L6.03514 42.0347C7.1411 41.1727 7.89392 39.9361 8.15195 38.5578L0.288552 37.0857ZM1.11687 35.7252C1.54962 35.3879 2.09074 35.2203 2.63844 35.254L2.14669 43.2389C3.54632 43.3251 4.92919 42.8968 6.03514 42.0347L1.11687 35.7252ZM2.63844 35.254C3.18612 35.2877 3.70259 35.5204 4.09069 35.9083L-1.56463 41.5667C-0.572815 42.558 0.74706 43.1527 2.14669 43.2389L2.63844 35.254ZM4.09069 35.9083C4.47879 36.2962 4.71178 36.8126 4.7458 37.3602L-3.2388 37.8563C-3.15185 39.2559 -2.55645 40.5754 -1.56463 41.5667L4.09069 35.9083ZM4.74569 37.3584C4.4665 32.8979 4.93545 26.8572 7.75681 22.0154L0.844693 17.9876C-3.12745 24.8043 -3.5615 32.7006 -3.23869 37.8581L4.74569 37.3584ZM7.75676 22.0155C10.3341 17.5927 15.0005 13.9305 23.6824 13.5341L23.3176 5.54242C12.067 6.05606 4.86144 11.0948 0.844742 17.9876L7.75676 22.0155ZM27.5 9.53826V2.49976H19.5V9.53826H27.5ZM27.5 2.49862C27.5001 2.96741 27.3538 3.42453 27.0816 3.80613L20.5694 -0.840518C19.8735 0.134691 19.4997 1.30289 19.5 2.50091L27.5 2.49862ZM27.0816 3.80613C26.8093 4.18774 26.4246 4.47476 25.9813 4.62712L23.3813 -2.93859C22.2483 -2.54924 21.2652 -1.81573 20.5694 -0.840518L27.0816 3.80613Z" fill="black" mask="url(#path-1-inside-1_256_183)"/>
</svg>
