<svg width="32" height="23" viewBox="0 0 32 23" fill="none" xmlns="http://www.w3.org/2000/svg">
<path d="M21.875 2.568C21.719 2.568 21.615 2.589 21.51 2.615V2.631H21.526C21.599 2.766 21.719 2.871 21.812 2.996C21.885 3.137 21.947 3.282 22.015 3.423L22.036 3.402C22.161 3.313 22.224 3.173 22.224 2.959C22.172 2.896 22.161 2.829 22.115 2.771C22.063 2.682 21.948 2.636 21.875 2.568ZM7.69298 20.161H6.45898C6.42161 18.1968 6.30184 16.2351 6.09998 14.281H6.08998L4.20998 20.161H3.26698L1.40198 14.281H1.38598C1.24104 16.238 1.15434 18.1989 1.12598 20.161H0.000976562C0.0618927 17.6952 0.244448 15.2338 0.547977 12.786H2.07898L3.85998 18.203H3.86998L5.66698 12.786H7.12498C7.44798 15.474 7.64098 17.932 7.69798 20.161H7.69298ZM13.047 14.719C12.547 17.448 11.88 19.433 11.063 20.667C10.417 21.62 9.71398 22.099 8.94798 22.099C8.74498 22.099 8.49498 22.036 8.19298 21.911V21.255C8.34398 21.276 8.51598 21.291 8.70898 21.291C9.06798 21.291 9.35498 21.187 9.57398 20.994C9.83398 20.754 9.96498 20.484 9.96498 20.187C9.96498 19.979 9.86598 19.562 9.65798 18.927L8.30898 14.719H9.52298L10.492 17.865C10.711 18.584 10.805 19.079 10.763 19.365C11.299 17.948 11.669 16.396 11.878 14.719H13.047ZM29.484 20.161H25.974V12.786H27.156V19.255H29.484V20.161ZM25.057 20.339L23.703 19.672C23.823 19.573 23.937 19.464 24.042 19.339C24.62 18.667 24.907 17.662 24.907 16.339C24.907 13.896 23.949 12.678 22.032 12.678C21.094 12.678 20.36 12.985 19.834 13.605C19.261 14.282 18.969 15.282 18.969 16.6C18.969 17.897 19.224 18.845 19.735 19.454C20.204 19.996 20.907 20.272 21.85 20.272C22.199 20.272 22.522 20.23 22.814 20.142L24.58 21.173L25.064 20.34L25.057 20.339ZM20.667 18.682C20.365 18.203 20.219 17.432 20.219 16.369C20.219 14.51 20.782 13.583 21.912 13.583C22.501 13.583 22.938 13.807 23.214 14.25C23.511 14.734 23.662 15.495 23.662 16.547C23.662 18.417 23.094 19.36 21.969 19.36C21.375 19.36 20.943 19.136 20.662 18.693L20.667 18.682ZM18.458 18.12C18.458 18.745 18.229 19.261 17.765 19.656C17.307 20.057 16.697 20.26 15.921 20.26C15.197 20.26 14.504 20.031 13.822 19.572L14.14 18.937C14.723 19.229 15.249 19.375 15.729 19.375C16.172 19.375 16.521 19.276 16.771 19.083C17.021 18.885 17.172 18.609 17.172 18.26C17.172 17.822 16.865 17.447 16.307 17.135C15.791 16.849 14.755 16.26 14.755 16.26C14.192 15.849 13.916 15.411 13.916 14.687C13.916 14.088 14.124 13.609 14.541 13.244C14.963 12.869 15.499 12.687 16.166 12.687C16.8296 12.6812 17.4801 12.8715 18.036 13.234L17.75 13.869C17.3032 13.6722 16.8212 13.5678 16.333 13.562C15.953 13.562 15.661 13.656 15.458 13.838C15.255 14.02 15.13 14.249 15.13 14.536C15.13 14.974 15.443 15.349 16.015 15.671C16.541 15.957 17.598 16.562 17.598 16.562C18.176 16.968 18.463 17.406 18.463 18.119L18.458 18.12ZM30.964 10.313C30.25 10.297 29.698 10.37 29.235 10.568C29.105 10.62 28.891 10.62 28.87 10.787C28.943 10.86 28.953 10.975 29.016 11.073C29.125 11.25 29.308 11.49 29.48 11.615C29.668 11.761 29.855 11.907 30.048 12.032C30.397 12.246 30.788 12.371 31.131 12.584C31.324 12.709 31.522 12.87 31.714 13.001C31.813 13.069 31.875 13.189 32 13.23V13.204C31.937 13.126 31.922 13.011 31.859 12.918C31.77 12.829 31.682 12.751 31.593 12.663C31.3322 12.3168 31.0195 12.0128 30.666 11.762C30.38 11.569 29.755 11.298 29.64 10.97L29.624 10.949C29.817 10.933 30.046 10.86 30.233 10.808C30.535 10.73 30.816 10.745 31.129 10.667C31.2726 10.6297 31.415 10.588 31.556 10.542V10.464C31.395 10.303 31.275 10.084 31.108 9.933C30.6478 9.53033 30.1566 9.16453 29.639 8.839C29.358 8.657 29.004 8.542 28.707 8.391C28.603 8.339 28.421 8.313 28.363 8.224C28.202 8.026 28.108 7.771 27.993 7.536C27.7314 7.0276 27.4882 6.50993 27.264 5.984C27.103 5.635 27.009 5.291 26.811 4.968C25.894 3.452 24.894 2.536 23.363 1.635C23.035 1.447 22.639 1.369 22.222 1.27C21.998 1.26 21.779 1.244 21.555 1.234C21.409 1.171 21.269 1.005 21.144 0.920997C20.634 0.597997 19.321 -0.0950033 18.951 0.821997C18.711 1.405 19.305 1.973 19.514 2.265C19.665 2.473 19.858 2.703 19.967 2.932C20.03 3.088 20.045 3.25 20.108 3.411C20.249 3.802 20.384 4.239 20.572 4.604C20.671 4.792 20.775 4.989 20.9 5.156C20.973 5.255 21.098 5.297 21.124 5.458C20.999 5.64 20.989 5.906 20.921 6.125C20.598 7.135 20.723 8.38 21.176 9.125C21.322 9.349 21.66 9.839 22.114 9.651C22.515 9.49 22.427 8.984 22.541 8.536C22.567 8.427 22.551 8.359 22.604 8.286V8.307C22.734 8.557 22.859 8.797 22.974 9.047C23.245 9.485 23.729 9.938 24.13 10.24C24.344 10.401 24.51 10.678 24.776 10.776V10.75H24.755C24.698 10.672 24.625 10.635 24.552 10.573C24.3831 10.4057 24.2264 10.2266 24.083 10.037C23.713 9.537 23.38 8.985 23.088 8.417C22.9473 8.13635 22.8189 7.84975 22.703 7.558C22.651 7.454 22.651 7.292 22.562 7.24C22.427 7.433 22.229 7.599 22.135 7.844C21.963 8.224 21.947 8.698 21.88 9.188C21.849 9.198 21.864 9.188 21.849 9.209C21.563 9.136 21.464 8.844 21.359 8.594C21.088 7.959 21.046 6.943 21.276 6.214C21.339 6.026 21.604 5.438 21.5 5.261C21.443 5.089 21.266 4.99 21.172 4.855C21.052 4.688 20.932 4.475 20.849 4.287C20.635 3.787 20.531 3.235 20.297 2.735C20.193 2.506 20.005 2.266 19.854 2.053C19.682 1.813 19.495 1.642 19.364 1.36C19.317 1.261 19.255 1.1 19.328 0.994997C19.344 0.921997 19.38 0.895997 19.453 0.874997C19.568 0.775997 19.901 0.900997 20.016 0.957997C20.344 1.088 20.62 1.213 20.896 1.401C21.021 1.49 21.156 1.656 21.318 1.703H21.506C21.792 1.766 22.11 1.719 22.376 1.802C22.85 1.953 23.277 2.172 23.662 2.411C24.8394 3.16679 25.7968 4.21946 26.438 5.463C26.547 5.666 26.594 5.854 26.693 6.067C26.875 6.51 27.11 6.952 27.297 7.374C27.484 7.796 27.662 8.223 27.932 8.572C28.067 8.76 28.599 8.858 28.843 8.952C29.02 9.035 29.296 9.108 29.452 9.202C29.759 9.39 30.061 9.603 30.348 9.811C30.494 9.91 30.937 10.134 30.963 10.311L30.964 10.313Z" fill="black"/>
</svg>
