<svg width="67" height="63" viewBox="0 0 67 63" fill="none" xmlns="http://www.w3.org/2000/svg">
<path d="M33.5 14.6946C14.7149 14.6946 0 22.1493 0 31.6668C0 41.1843 14.7149 48.639 33.5 48.639C52.2851 48.639 67 41.1843 67 31.6668C67 22.1493 52.2851 14.6946 33.5 14.6946ZM30.0216 19.9168H33.6787L32.5173 25.139H35.7836C37.855 25.139 39.2453 25.4106 40.0381 26.0868C40.8114 26.7553 41.0459 27.852 40.736 29.3455L39.2843 35.5835H35.5658L36.903 29.8155C37.065 29.0243 37.0008 28.4734 36.716 28.1836C36.434 27.8937 35.8115 27.7501 34.8791 27.7501H31.9506L30.1835 35.5835H26.5208L30.0216 19.9168V19.9168ZM13.9583 25.139H21.4009C24.9491 25.139 27.0987 27.3637 26.2584 30.6824C25.2813 34.539 22.6683 35.5835 17.8555 35.5835H15.5552L14.8265 39.5001H11.1276L13.9583 25.139ZM43.2708 25.139H50.7134C54.2616 25.139 56.4112 27.3637 55.5709 30.6824C54.5938 34.539 51.978 35.5835 47.168 35.5835H44.8677L44.139 39.5001H40.4401L43.2708 25.139ZM17.1269 27.7501L16.0744 32.9723H18.4613C20.5271 32.9723 22.4478 32.753 22.7688 29.8703C22.8889 28.7554 22.392 27.7501 20.0051 27.7501H17.1269ZM46.4394 27.7501L45.3869 32.9723H47.7738C49.8396 32.9723 51.7603 32.753 52.0813 29.8703C52.2014 28.7554 51.7073 27.7501 49.3176 27.7501H46.4394V27.7501Z" fill="black"/>
</svg>
