<svg width="340" height="66" viewBox="0 0 340 66" fill="none" xmlns="http://www.w3.org/2000/svg">
<mask id="path-1-outside-1_387_193" maskUnits="userSpaceOnUse" x="0.139893" y="0.900024" width="340" height="65" fill="black">
<rect fill="white" x="0.139893" y="0.900024" width="340" height="65"/>
<path d="M21.5999 55H12.2999C11.5399 55 10.9799 54.84 10.6199 54.52C10.2999 54.16 10.1399 53.6 10.1399 52.84V13.96C10.1399 13.2 10.2999 12.66 10.6199 12.34C10.9799 11.98 11.5399 11.8 12.2999 11.8H30.6599C36.0999 11.8 39.8199 12.88 41.8199 15.04C43.8199 17.2 44.8199 20.02 44.8199 23.5V31.18C44.8199 34.66 43.8199 37.48 41.8199 39.64C39.8199 41.8 36.0999 42.88 30.6599 42.88H23.7599V52.84C23.7599 53.6 23.5799 54.16 23.2199 54.52C22.8999 54.84 22.3599 55 21.5999 55ZM23.6399 23.02V32.08H29.0399C30.1999 32.08 30.9599 31.78 31.3199 31.18C31.6799 30.58 31.8599 29.9 31.8599 29.14V25.96C31.8599 25.2 31.6799 24.52 31.3199 23.92C30.9599 23.32 30.1999 23.02 29.0399 23.02H23.6399Z"/>
<path d="M64.5983 22.6V30.28H69.0983C70.1383 30.28 70.8383 30.02 71.1983 29.5C71.5583 28.94 71.7383 28.26 71.7383 27.46V25.42C71.7383 24.62 71.5583 23.96 71.1983 23.44C70.8383 22.88 70.1383 22.6 69.0983 22.6H64.5983ZM62.4383 55H53.1983C52.4383 55 51.8783 54.84 51.5183 54.52C51.1983 54.16 51.0383 53.6 51.0383 52.84V13.96C51.0383 13.2 51.1983 12.66 51.5183 12.34C51.8783 11.98 52.4383 11.8 53.1983 11.8H73.1783C77.6583 11.8 80.7383 12.74 82.4183 14.62C84.1383 16.46 84.9983 18.86 84.9983 21.82V24.58C84.9983 26.26 84.7383 27.7 84.2183 28.9C83.7383 30.06 82.8783 30.9 81.6383 31.42C83.7983 31.66 85.5383 32.54 86.8583 34.06C88.2183 35.58 88.8983 37.6 88.8983 40.12V52.84C88.8983 53.6 88.7183 54.16 88.3583 54.52C88.0383 54.84 87.4983 55 86.7383 55H77.4383C76.6783 55 76.1183 54.84 75.7583 54.52C75.4383 54.16 75.2783 53.6 75.2783 52.84V43.66C75.2783 42.78 75.0983 42.14 74.7383 41.74C74.4183 41.3 73.8383 41.08 72.9983 41.08H64.5983V52.84C64.5983 53.6 64.4183 54.16 64.0583 54.52C63.7383 54.84 63.1983 55 62.4383 55Z"/>
<path d="M131.935 43.66C131.935 45.5 131.655 47.18 131.095 48.7C130.575 50.18 129.615 51.46 128.215 52.54C126.855 53.58 124.955 54.4 122.515 55C120.115 55.6 117.055 55.9 113.335 55.9C109.615 55.9 106.535 55.6 104.095 55C101.655 54.4 99.7352 53.58 98.3352 52.54C96.9752 51.46 96.0152 50.18 95.4552 48.7C94.9352 47.18 94.6752 45.5 94.6752 43.66V23.2C94.6752 21.36 94.9352 19.7 95.4552 18.22C96.0152 16.7 96.9752 15.4 98.3352 14.32C99.7352 13.24 101.655 12.4 104.095 11.8C106.535 11.2 109.615 10.9 113.335 10.9C117.055 10.9 120.115 11.2 122.515 11.8C124.955 12.4 126.855 13.24 128.215 14.32C129.615 15.4 130.575 16.7 131.095 18.22C131.655 19.7 131.935 21.36 131.935 23.2V43.66ZM108.295 41.5C108.295 42.3 108.595 42.98 109.195 43.54C109.795 44.06 111.175 44.32 113.335 44.32C115.495 44.32 116.875 44.06 117.475 43.54C118.075 42.98 118.375 42.3 118.375 41.5V25.36C118.375 24.6 118.075 23.96 117.475 23.44C116.875 22.88 115.495 22.6 113.335 22.6C111.175 22.6 109.795 22.88 109.195 23.44C108.595 23.96 108.295 24.6 108.295 25.36V41.5Z"/>
<path d="M172.873 43.66C172.873 45.5 172.613 47.18 172.093 48.7C171.573 50.18 170.653 51.46 169.333 52.54C168.053 53.58 166.273 54.4 163.993 55C161.713 55.6 158.813 55.9 155.293 55.9C151.813 55.9 148.933 55.6 146.653 55C144.413 54.4 142.633 53.58 141.313 52.54C140.033 51.46 139.133 50.18 138.613 48.7C138.133 47.18 137.893 45.5 137.893 43.66V33.94C137.893 33.18 138.053 32.64 138.373 32.32C138.733 31.96 139.293 31.78 140.053 31.78H148.753C149.513 31.78 150.053 31.96 150.373 32.32C150.733 32.64 150.913 33.18 150.913 33.94V41.26C150.913 42.06 151.153 42.74 151.633 43.3C152.153 43.82 153.333 44.08 155.173 44.08C156.893 44.08 157.973 43.82 158.413 43.3C158.893 42.74 159.133 42.06 159.133 41.26V13.96C159.133 13.2 159.293 12.66 159.613 12.34C159.973 11.98 160.533 11.8 161.293 11.8H170.713C171.473 11.8 172.013 11.98 172.333 12.34C172.693 12.66 172.873 13.2 172.873 13.96V43.66Z"/>
<path d="M210.882 55H183.042C182.282 55 181.722 54.84 181.362 54.52C181.042 54.16 180.882 53.6 180.882 52.84V13.96C180.882 13.2 181.042 12.66 181.362 12.34C181.722 11.98 182.282 11.8 183.042 11.8H210.882C211.642 11.8 212.182 11.98 212.502 12.34C212.862 12.66 213.042 13.2 213.042 13.96V20.98C213.042 21.74 212.862 22.3 212.502 22.66C212.182 22.98 211.642 23.14 210.882 23.14H194.322V27.76H206.022C206.782 27.76 207.322 27.94 207.642 28.3C208.002 28.62 208.182 29.16 208.182 29.92V36.34C208.182 37.1 208.002 37.66 207.642 38.02C207.322 38.34 206.782 38.5 206.022 38.5H194.322V43.66H210.882C211.642 43.66 212.182 43.84 212.502 44.2C212.862 44.52 213.042 45.06 213.042 45.82V52.84C213.042 53.6 212.862 54.16 212.502 54.52C212.182 54.84 211.642 55 210.882 55Z"/>
<path d="M248.587 55H233.947C228.947 55 225.227 54 222.787 52C220.387 50 219.187 46.92 219.187 42.76V24.1C219.187 19.94 220.387 16.86 222.787 14.86C225.227 12.82 228.947 11.8 233.947 11.8H248.587C249.347 11.8 249.887 11.98 250.207 12.34C250.567 12.66 250.747 13.2 250.747 13.96V21.22C250.747 21.98 250.567 22.54 250.207 22.9C249.887 23.22 249.347 23.38 248.587 23.38H236.527C235.287 23.38 234.367 23.64 233.767 24.16C233.167 24.64 232.867 25.38 232.867 26.38V40.66C232.867 41.66 233.167 42.4 233.767 42.88C234.367 43.32 235.287 43.54 236.527 43.54H248.587C249.347 43.54 249.887 43.72 250.207 44.08C250.567 44.4 250.747 44.94 250.747 45.7V52.84C250.747 53.6 250.567 54.16 250.207 54.52C249.887 54.84 249.347 55 248.587 55Z"/>
<path d="M277.923 55H268.203C267.443 55 266.883 54.84 266.523 54.52C266.203 54.16 266.043 53.6 266.043 52.84V23.38H257.223C256.463 23.38 255.903 23.22 255.543 22.9C255.223 22.54 255.063 21.98 255.063 21.22V13.96C255.063 13.2 255.223 12.66 255.543 12.34C255.903 11.98 256.463 11.8 257.223 11.8H288.903C289.663 11.8 290.203 11.98 290.523 12.34C290.883 12.66 291.063 13.2 291.063 13.96V21.22C291.063 21.98 290.883 22.54 290.523 22.9C290.203 23.22 289.663 23.38 288.903 23.38H280.083V52.84C280.083 53.6 279.903 54.16 279.543 54.52C279.223 54.84 278.683 55 277.923 55Z"/>
<path d="M316.938 55H297.978C297.218 55 296.658 54.84 296.298 54.52C295.978 54.16 295.818 53.6 295.818 52.84V45.82C295.818 45.06 295.978 44.52 296.298 44.2C296.658 43.84 297.218 43.66 297.978 43.66H314.118C314.638 43.66 315.018 43.5 315.258 43.18C315.538 42.82 315.678 42.4 315.678 41.92C315.678 41.24 315.538 40.74 315.258 40.42C315.018 40.1 314.638 39.92 314.118 39.88L305.118 38.62C302.318 38.22 300.058 37.3 298.338 35.86C296.658 34.42 295.818 32.02 295.818 28.66V22.36C295.818 18.96 296.918 16.36 299.118 14.56C301.318 12.72 304.358 11.8 308.238 11.8H325.038C325.798 11.8 326.338 11.98 326.658 12.34C327.018 12.66 327.198 13.2 327.198 13.96V21.1C327.198 21.86 327.018 22.42 326.658 22.78C326.338 23.1 325.798 23.26 325.038 23.26H311.058C310.538 23.26 310.138 23.44 309.858 23.8C309.578 24.12 309.438 24.54 309.438 25.06C309.438 25.58 309.578 26.02 309.858 26.38C310.138 26.74 310.538 26.94 311.058 26.98L319.998 28.18C322.798 28.58 325.058 29.5 326.778 30.94C328.498 32.38 329.358 34.78 329.358 38.14V44.44C329.358 47.84 328.238 50.46 325.998 52.3C323.798 54.1 320.778 55 316.938 55Z"/>
</mask>
<path d="M21.5999 55H12.2999C11.5399 55 10.9799 54.84 10.6199 54.52C10.2999 54.16 10.1399 53.6 10.1399 52.84V13.96C10.1399 13.2 10.2999 12.66 10.6199 12.34C10.9799 11.98 11.5399 11.8 12.2999 11.8H30.6599C36.0999 11.8 39.8199 12.88 41.8199 15.04C43.8199 17.2 44.8199 20.02 44.8199 23.5V31.18C44.8199 34.66 43.8199 37.48 41.8199 39.64C39.8199 41.8 36.0999 42.88 30.6599 42.88H23.7599V52.84C23.7599 53.6 23.5799 54.16 23.2199 54.52C22.8999 54.84 22.3599 55 21.5999 55ZM23.6399 23.02V32.08H29.0399C30.1999 32.08 30.9599 31.78 31.3199 31.18C31.6799 30.58 31.8599 29.9 31.8599 29.14V25.96C31.8599 25.2 31.6799 24.52 31.3199 23.92C30.9599 23.32 30.1999 23.02 29.0399 23.02H23.6399Z" fill="black"/>
<path d="M64.5983 22.6V30.28H69.0983C70.1383 30.28 70.8383 30.02 71.1983 29.5C71.5583 28.94 71.7383 28.26 71.7383 27.46V25.42C71.7383 24.62 71.5583 23.96 71.1983 23.44C70.8383 22.88 70.1383 22.6 69.0983 22.6H64.5983ZM62.4383 55H53.1983C52.4383 55 51.8783 54.84 51.5183 54.52C51.1983 54.16 51.0383 53.6 51.0383 52.84V13.96C51.0383 13.2 51.1983 12.66 51.5183 12.34C51.8783 11.98 52.4383 11.8 53.1983 11.8H73.1783C77.6583 11.8 80.7383 12.74 82.4183 14.62C84.1383 16.46 84.9983 18.86 84.9983 21.82V24.58C84.9983 26.26 84.7383 27.7 84.2183 28.9C83.7383 30.06 82.8783 30.9 81.6383 31.42C83.7983 31.66 85.5383 32.54 86.8583 34.06C88.2183 35.58 88.8983 37.6 88.8983 40.12V52.84C88.8983 53.6 88.7183 54.16 88.3583 54.52C88.0383 54.84 87.4983 55 86.7383 55H77.4383C76.6783 55 76.1183 54.84 75.7583 54.52C75.4383 54.16 75.2783 53.6 75.2783 52.84V43.66C75.2783 42.78 75.0983 42.14 74.7383 41.74C74.4183 41.3 73.8383 41.08 72.9983 41.08H64.5983V52.84C64.5983 53.6 64.4183 54.16 64.0583 54.52C63.7383 54.84 63.1983 55 62.4383 55Z" fill="black"/>
<path d="M131.935 43.66C131.935 45.5 131.655 47.18 131.095 48.7C130.575 50.18 129.615 51.46 128.215 52.54C126.855 53.58 124.955 54.4 122.515 55C120.115 55.6 117.055 55.9 113.335 55.9C109.615 55.9 106.535 55.6 104.095 55C101.655 54.4 99.7352 53.58 98.3352 52.54C96.9752 51.46 96.0152 50.18 95.4552 48.7C94.9352 47.18 94.6752 45.5 94.6752 43.66V23.2C94.6752 21.36 94.9352 19.7 95.4552 18.22C96.0152 16.7 96.9752 15.4 98.3352 14.32C99.7352 13.24 101.655 12.4 104.095 11.8C106.535 11.2 109.615 10.9 113.335 10.9C117.055 10.9 120.115 11.2 122.515 11.8C124.955 12.4 126.855 13.24 128.215 14.32C129.615 15.4 130.575 16.7 131.095 18.22C131.655 19.7 131.935 21.36 131.935 23.2V43.66ZM108.295 41.5C108.295 42.3 108.595 42.98 109.195 43.54C109.795 44.06 111.175 44.32 113.335 44.32C115.495 44.32 116.875 44.06 117.475 43.54C118.075 42.98 118.375 42.3 118.375 41.5V25.36C118.375 24.6 118.075 23.96 117.475 23.44C116.875 22.88 115.495 22.6 113.335 22.6C111.175 22.6 109.795 22.88 109.195 23.44C108.595 23.96 108.295 24.6 108.295 25.36V41.5Z" fill="black"/>
<path d="M172.873 43.66C172.873 45.5 172.613 47.18 172.093 48.7C171.573 50.18 170.653 51.46 169.333 52.54C168.053 53.58 166.273 54.4 163.993 55C161.713 55.6 158.813 55.9 155.293 55.9C151.813 55.9 148.933 55.6 146.653 55C144.413 54.4 142.633 53.58 141.313 52.54C140.033 51.46 139.133 50.18 138.613 48.7C138.133 47.18 137.893 45.5 137.893 43.66V33.94C137.893 33.18 138.053 32.64 138.373 32.32C138.733 31.96 139.293 31.78 140.053 31.78H148.753C149.513 31.78 150.053 31.96 150.373 32.32C150.733 32.64 150.913 33.18 150.913 33.94V41.26C150.913 42.06 151.153 42.74 151.633 43.3C152.153 43.82 153.333 44.08 155.173 44.08C156.893 44.08 157.973 43.82 158.413 43.3C158.893 42.74 159.133 42.06 159.133 41.26V13.96C159.133 13.2 159.293 12.66 159.613 12.34C159.973 11.98 160.533 11.8 161.293 11.8H170.713C171.473 11.8 172.013 11.98 172.333 12.34C172.693 12.66 172.873 13.2 172.873 13.96V43.66Z" fill="black"/>
<path d="M210.882 55H183.042C182.282 55 181.722 54.84 181.362 54.52C181.042 54.16 180.882 53.6 180.882 52.84V13.96C180.882 13.2 181.042 12.66 181.362 12.34C181.722 11.98 182.282 11.8 183.042 11.8H210.882C211.642 11.8 212.182 11.98 212.502 12.34C212.862 12.66 213.042 13.2 213.042 13.96V20.98C213.042 21.74 212.862 22.3 212.502 22.66C212.182 22.98 211.642 23.14 210.882 23.14H194.322V27.76H206.022C206.782 27.76 207.322 27.94 207.642 28.3C208.002 28.62 208.182 29.16 208.182 29.92V36.34C208.182 37.1 208.002 37.66 207.642 38.02C207.322 38.34 206.782 38.5 206.022 38.5H194.322V43.66H210.882C211.642 43.66 212.182 43.84 212.502 44.2C212.862 44.52 213.042 45.06 213.042 45.82V52.84C213.042 53.6 212.862 54.16 212.502 54.52C212.182 54.84 211.642 55 210.882 55Z" fill="black"/>
<path d="M248.587 55H233.947C228.947 55 225.227 54 222.787 52C220.387 50 219.187 46.92 219.187 42.76V24.1C219.187 19.94 220.387 16.86 222.787 14.86C225.227 12.82 228.947 11.8 233.947 11.8H248.587C249.347 11.8 249.887 11.98 250.207 12.34C250.567 12.66 250.747 13.2 250.747 13.96V21.22C250.747 21.98 250.567 22.54 250.207 22.9C249.887 23.22 249.347 23.38 248.587 23.38H236.527C235.287 23.38 234.367 23.64 233.767 24.16C233.167 24.64 232.867 25.38 232.867 26.38V40.66C232.867 41.66 233.167 42.4 233.767 42.88C234.367 43.32 235.287 43.54 236.527 43.54H248.587C249.347 43.54 249.887 43.72 250.207 44.08C250.567 44.4 250.747 44.94 250.747 45.7V52.84C250.747 53.6 250.567 54.16 250.207 54.52C249.887 54.84 249.347 55 248.587 55Z" fill="black"/>
<path d="M277.923 55H268.203C267.443 55 266.883 54.84 266.523 54.52C266.203 54.16 266.043 53.6 266.043 52.84V23.38H257.223C256.463 23.38 255.903 23.22 255.543 22.9C255.223 22.54 255.063 21.98 255.063 21.22V13.96C255.063 13.2 255.223 12.66 255.543 12.34C255.903 11.98 256.463 11.8 257.223 11.8H288.903C289.663 11.8 290.203 11.98 290.523 12.34C290.883 12.66 291.063 13.2 291.063 13.96V21.22C291.063 21.98 290.883 22.54 290.523 22.9C290.203 23.22 289.663 23.38 288.903 23.38H280.083V52.84C280.083 53.6 279.903 54.16 279.543 54.52C279.223 54.84 278.683 55 277.923 55Z" fill="black"/>
<path d="M316.938 55H297.978C297.218 55 296.658 54.84 296.298 54.52C295.978 54.16 295.818 53.6 295.818 52.84V45.82C295.818 45.06 295.978 44.52 296.298 44.2C296.658 43.84 297.218 43.66 297.978 43.66H314.118C314.638 43.66 315.018 43.5 315.258 43.18C315.538 42.82 315.678 42.4 315.678 41.92C315.678 41.24 315.538 40.74 315.258 40.42C315.018 40.1 314.638 39.92 314.118 39.88L305.118 38.62C302.318 38.22 300.058 37.3 298.338 35.86C296.658 34.42 295.818 32.02 295.818 28.66V22.36C295.818 18.96 296.918 16.36 299.118 14.56C301.318 12.72 304.358 11.8 308.238 11.8H325.038C325.798 11.8 326.338 11.98 326.658 12.34C327.018 12.66 327.198 13.2 327.198 13.96V21.1C327.198 21.86 327.018 22.42 326.658 22.78C326.338 23.1 325.798 23.26 325.038 23.26H311.058C310.538 23.26 310.138 23.44 309.858 23.8C309.578 24.12 309.438 24.54 309.438 25.06C309.438 25.58 309.578 26.02 309.858 26.38C310.138 26.74 310.538 26.94 311.058 26.98L319.998 28.18C322.798 28.58 325.058 29.5 326.778 30.94C328.498 32.38 329.358 34.78 329.358 38.14V44.44C329.358 47.84 328.238 50.46 325.998 52.3C323.798 54.1 320.778 55 316.938 55Z" fill="black"/>
<path d="M21.5999 55H12.2999C11.5399 55 10.9799 54.84 10.6199 54.52C10.2999 54.16 10.1399 53.6 10.1399 52.84V13.96C10.1399 13.2 10.2999 12.66 10.6199 12.34C10.9799 11.98 11.5399 11.8 12.2999 11.8H30.6599C36.0999 11.8 39.8199 12.88 41.8199 15.04C43.8199 17.2 44.8199 20.02 44.8199 23.5V31.18C44.8199 34.66 43.8199 37.48 41.8199 39.64C39.8199 41.8 36.0999 42.88 30.6599 42.88H23.7599V52.84C23.7599 53.6 23.5799 54.16 23.2199 54.52C22.8999 54.84 22.3599 55 21.5999 55ZM23.6399 23.02V32.08H29.0399C30.1999 32.08 30.9599 31.78 31.3199 31.18C31.6799 30.58 31.8599 29.9 31.8599 29.14V25.96C31.8599 25.2 31.6799 24.52 31.3199 23.92C30.9599 23.32 30.1999 23.02 29.0399 23.02H23.6399Z" stroke="white" stroke-width="20" mask="url(#path-1-outside-1_387_193)"/>
<path d="M64.5983 22.6V30.28H69.0983C70.1383 30.28 70.8383 30.02 71.1983 29.5C71.5583 28.94 71.7383 28.26 71.7383 27.46V25.42C71.7383 24.62 71.5583 23.96 71.1983 23.44C70.8383 22.88 70.1383 22.6 69.0983 22.6H64.5983ZM62.4383 55H53.1983C52.4383 55 51.8783 54.84 51.5183 54.52C51.1983 54.16 51.0383 53.6 51.0383 52.84V13.96C51.0383 13.2 51.1983 12.66 51.5183 12.34C51.8783 11.98 52.4383 11.8 53.1983 11.8H73.1783C77.6583 11.8 80.7383 12.74 82.4183 14.62C84.1383 16.46 84.9983 18.86 84.9983 21.82V24.58C84.9983 26.26 84.7383 27.7 84.2183 28.9C83.7383 30.06 82.8783 30.9 81.6383 31.42C83.7983 31.66 85.5383 32.54 86.8583 34.06C88.2183 35.58 88.8983 37.6 88.8983 40.12V52.84C88.8983 53.6 88.7183 54.16 88.3583 54.52C88.0383 54.84 87.4983 55 86.7383 55H77.4383C76.6783 55 76.1183 54.84 75.7583 54.52C75.4383 54.16 75.2783 53.6 75.2783 52.84V43.66C75.2783 42.78 75.0983 42.14 74.7383 41.74C74.4183 41.3 73.8383 41.08 72.9983 41.08H64.5983V52.84C64.5983 53.6 64.4183 54.16 64.0583 54.52C63.7383 54.84 63.1983 55 62.4383 55Z" stroke="white" stroke-width="20" mask="url(#path-1-outside-1_387_193)"/>
<path d="M131.935 43.66C131.935 45.5 131.655 47.18 131.095 48.7C130.575 50.18 129.615 51.46 128.215 52.54C126.855 53.58 124.955 54.4 122.515 55C120.115 55.6 117.055 55.9 113.335 55.9C109.615 55.9 106.535 55.6 104.095 55C101.655 54.4 99.7352 53.58 98.3352 52.54C96.9752 51.46 96.0152 50.18 95.4552 48.7C94.9352 47.18 94.6752 45.5 94.6752 43.66V23.2C94.6752 21.36 94.9352 19.7 95.4552 18.22C96.0152 16.7 96.9752 15.4 98.3352 14.32C99.7352 13.24 101.655 12.4 104.095 11.8C106.535 11.2 109.615 10.9 113.335 10.9C117.055 10.9 120.115 11.2 122.515 11.8C124.955 12.4 126.855 13.24 128.215 14.32C129.615 15.4 130.575 16.7 131.095 18.22C131.655 19.7 131.935 21.36 131.935 23.2V43.66ZM108.295 41.5C108.295 42.3 108.595 42.98 109.195 43.54C109.795 44.06 111.175 44.32 113.335 44.32C115.495 44.32 116.875 44.06 117.475 43.54C118.075 42.98 118.375 42.3 118.375 41.5V25.36C118.375 24.6 118.075 23.96 117.475 23.44C116.875 22.88 115.495 22.6 113.335 22.6C111.175 22.6 109.795 22.88 109.195 23.44C108.595 23.96 108.295 24.6 108.295 25.36V41.5Z" stroke="white" stroke-width="20" mask="url(#path-1-outside-1_387_193)"/>
<path d="M172.873 43.66C172.873 45.5 172.613 47.18 172.093 48.7C171.573 50.18 170.653 51.46 169.333 52.54C168.053 53.58 166.273 54.4 163.993 55C161.713 55.6 158.813 55.9 155.293 55.9C151.813 55.9 148.933 55.6 146.653 55C144.413 54.4 142.633 53.58 141.313 52.54C140.033 51.46 139.133 50.18 138.613 48.7C138.133 47.18 137.893 45.5 137.893 43.66V33.94C137.893 33.18 138.053 32.64 138.373 32.32C138.733 31.96 139.293 31.78 140.053 31.78H148.753C149.513 31.78 150.053 31.96 150.373 32.32C150.733 32.64 150.913 33.18 150.913 33.94V41.26C150.913 42.06 151.153 42.74 151.633 43.3C152.153 43.82 153.333 44.08 155.173 44.08C156.893 44.08 157.973 43.82 158.413 43.3C158.893 42.74 159.133 42.06 159.133 41.26V13.96C159.133 13.2 159.293 12.66 159.613 12.34C159.973 11.98 160.533 11.8 161.293 11.8H170.713C171.473 11.8 172.013 11.98 172.333 12.34C172.693 12.66 172.873 13.2 172.873 13.96V43.66Z" stroke="white" stroke-width="20" mask="url(#path-1-outside-1_387_193)"/>
<path d="M210.882 55H183.042C182.282 55 181.722 54.84 181.362 54.52C181.042 54.16 180.882 53.6 180.882 52.84V13.96C180.882 13.2 181.042 12.66 181.362 12.34C181.722 11.98 182.282 11.8 183.042 11.8H210.882C211.642 11.8 212.182 11.98 212.502 12.34C212.862 12.66 213.042 13.2 213.042 13.96V20.98C213.042 21.74 212.862 22.3 212.502 22.66C212.182 22.98 211.642 23.14 210.882 23.14H194.322V27.76H206.022C206.782 27.76 207.322 27.94 207.642 28.3C208.002 28.62 208.182 29.16 208.182 29.92V36.34C208.182 37.1 208.002 37.66 207.642 38.02C207.322 38.34 206.782 38.5 206.022 38.5H194.322V43.66H210.882C211.642 43.66 212.182 43.84 212.502 44.2C212.862 44.52 213.042 45.06 213.042 45.82V52.84C213.042 53.6 212.862 54.16 212.502 54.52C212.182 54.84 211.642 55 210.882 55Z" stroke="white" stroke-width="20" mask="url(#path-1-outside-1_387_193)"/>
<path d="M248.587 55H233.947C228.947 55 225.227 54 222.787 52C220.387 50 219.187 46.92 219.187 42.76V24.1C219.187 19.94 220.387 16.86 222.787 14.86C225.227 12.82 228.947 11.8 233.947 11.8H248.587C249.347 11.8 249.887 11.98 250.207 12.34C250.567 12.66 250.747 13.2 250.747 13.96V21.22C250.747 21.98 250.567 22.54 250.207 22.9C249.887 23.22 249.347 23.38 248.587 23.38H236.527C235.287 23.38 234.367 23.64 233.767 24.16C233.167 24.64 232.867 25.38 232.867 26.38V40.66C232.867 41.66 233.167 42.4 233.767 42.88C234.367 43.32 235.287 43.54 236.527 43.54H248.587C249.347 43.54 249.887 43.72 250.207 44.08C250.567 44.4 250.747 44.94 250.747 45.7V52.84C250.747 53.6 250.567 54.16 250.207 54.52C249.887 54.84 249.347 55 248.587 55Z" stroke="white" stroke-width="20" mask="url(#path-1-outside-1_387_193)"/>
<path d="M277.923 55H268.203C267.443 55 266.883 54.84 266.523 54.52C266.203 54.16 266.043 53.6 266.043 52.84V23.38H257.223C256.463 23.38 255.903 23.22 255.543 22.9C255.223 22.54 255.063 21.98 255.063 21.22V13.96C255.063 13.2 255.223 12.66 255.543 12.34C255.903 11.98 256.463 11.8 257.223 11.8H288.903C289.663 11.8 290.203 11.98 290.523 12.34C290.883 12.66 291.063 13.2 291.063 13.96V21.22C291.063 21.98 290.883 22.54 290.523 22.9C290.203 23.22 289.663 23.38 288.903 23.38H280.083V52.84C280.083 53.6 279.903 54.16 279.543 54.52C279.223 54.84 278.683 55 277.923 55Z" stroke="white" stroke-width="20" mask="url(#path-1-outside-1_387_193)"/>
<path d="M316.938 55H297.978C297.218 55 296.658 54.84 296.298 54.52C295.978 54.16 295.818 53.6 295.818 52.84V45.82C295.818 45.06 295.978 44.52 296.298 44.2C296.658 43.84 297.218 43.66 297.978 43.66H314.118C314.638 43.66 315.018 43.5 315.258 43.18C315.538 42.82 315.678 42.4 315.678 41.92C315.678 41.24 315.538 40.74 315.258 40.42C315.018 40.1 314.638 39.92 314.118 39.88L305.118 38.62C302.318 38.22 300.058 37.3 298.338 35.86C296.658 34.42 295.818 32.02 295.818 28.66V22.36C295.818 18.96 296.918 16.36 299.118 14.56C301.318 12.72 304.358 11.8 308.238 11.8H325.038C325.798 11.8 326.338 11.98 326.658 12.34C327.018 12.66 327.198 13.2 327.198 13.96V21.1C327.198 21.86 327.018 22.42 326.658 22.78C326.338 23.1 325.798 23.26 325.038 23.26H311.058C310.538 23.26 310.138 23.44 309.858 23.8C309.578 24.12 309.438 24.54 309.438 25.06C309.438 25.58 309.578 26.02 309.858 26.38C310.138 26.74 310.538 26.94 311.058 26.98L319.998 28.18C322.798 28.58 325.058 29.5 326.778 30.94C328.498 32.38 329.358 34.78 329.358 38.14V44.44C329.358 47.84 328.238 50.46 325.998 52.3C323.798 54.1 320.778 55 316.938 55Z" stroke="white" stroke-width="20" mask="url(#path-1-outside-1_387_193)"/>
</svg>
